<svg width="190" height="49" viewBox="0 0 190 49" fill="none" xmlns="http://www.w3.org/2000/svg">
<path fill-rule="evenodd" clip-rule="evenodd" d="M151.835 32.3734C158.472 31.1262 178.478 27.3667 182.816 30.0783C183.634 30.7327 182.5 30.9687 182.266 30.7863C182.241 30.7415 182.229 30.705 182.23 30.68C182.233 30.6717 182.236 30.663 182.241 30.6541C182.234 30.6603 182.231 30.6691 182.23 30.68C182.217 30.7244 182.232 30.7597 182.266 30.7863C182.563 31.3204 184.605 33.0312 185.119 30.4621C185.311 29.3107 184.735 28.3512 183.776 27.7755C179.202 24.785 159.633 28.4056 152.264 29.769C151.593 29.893 151.024 29.9984 150.576 30.0783L149.617 30.2703C146.162 31.0379 144.243 30.4621 143.284 29.5026C142.708 28.9269 142.516 28.1593 142.708 27.1998V27.0078C145.587 26.8159 148.465 25.6645 148.849 23.7454C148.849 23.1697 148.657 22.7859 148.465 22.4021C148.082 22.0183 147.698 21.8265 147.314 21.6346L147.314 21.6345C145.587 21.0588 143.86 22.0183 142.516 23.7454C142.132 24.3212 141.749 24.8969 141.365 25.6645H141.365C140.597 25.6645 139.83 25.6645 139.254 25.4726C138.486 25.2807 137.719 25.0888 137.527 24.705C137.335 24.3212 137.335 23.9374 137.719 23.3616C137.719 23.2657 137.767 23.1697 137.815 23.0738C137.863 22.9778 137.911 22.8819 137.911 22.7859C138.102 21.4426 137.527 21.4426 136.375 22.2102C135.991 22.4021 135.608 22.7859 135.224 23.1697C133.689 24.705 131.194 27.3917 130.042 29.3107C130.042 28.5175 129.991 27.3656 129.942 26.2522C129.895 25.2107 129.85 24.2028 129.85 23.5536V22.7859C129.659 22.2102 129.467 22.0183 128.891 22.0183C128.315 22.2102 127.74 22.7859 126.78 23.9374C124.861 26.2402 121.215 30.2703 118.528 30.2703C117.569 30.2703 116.801 29.8864 116.417 29.3107C116.309 29.203 116.262 29.0347 116.207 28.8399C116.165 28.6878 116.117 28.5195 116.033 28.3512C116.417 28.1593 116.801 27.9674 116.993 27.7755C118.912 26.4321 120.063 25.0888 120.639 23.9374C120.831 23.3617 120.831 22.9779 120.831 22.5941V22.594C120.639 22.0183 120.447 21.6345 120.063 21.4426C119.679 21.2507 119.104 21.0588 118.528 21.2507H118.336C116.417 22.0183 115.074 23.5535 114.498 25.2807C114.114 25.8564 114.114 26.624 114.114 27.3917L111.811 28.5431C110.468 29.3107 109.125 29.6945 107.973 29.8864C106.822 30.0783 106.054 29.8864 105.67 29.3107C105.478 29.3107 105.478 29.1188 105.478 29.1188C105.287 28.735 105.287 28.3513 105.287 27.7756V27.7755C105.287 27.1891 105.511 26.6027 105.702 26.1018C105.761 25.947 105.817 25.8004 105.862 25.6645C105.946 25.4962 105.994 25.3279 106.036 25.1758C106.091 24.981 106.138 24.8127 106.246 24.705L106.289 24.6043C106.831 23.3422 106.989 22.9729 106.054 22.7859C105.67 22.7859 105.478 22.9778 105.095 23.3616C104.711 23.5535 104.327 23.9373 103.751 24.513L103.751 24.5131C101.065 26.816 98.9537 28.3512 97.4184 29.3107C96.0751 30.0783 94.9237 30.4621 94.1561 30.4621H93.7722C93.3884 30.2702 93.1965 30.0783 93.0046 29.5026C92.8127 28.7351 92.8127 27.9675 92.8127 27.0081V27.0078V27.0077C92.8127 26.432 92.8127 25.6645 93.0046 24.8969C95.8832 21.8264 98.7618 17.4126 100.873 11.6554C101.832 8.96871 102.216 6.47397 102.216 5.32253C102.216 4.74682 102.024 4.17108 101.64 3.97917C101.257 3.59536 100.681 3.59537 100.105 4.17109C99.5294 4.7468 98.378 6.47396 97.0346 9.54445C96.6618 10.5387 96.2084 11.533 95.7788 12.4752C95.5451 12.9878 95.3184 13.485 95.1156 13.9583C94.6038 14.9818 94.2627 15.8347 94.0352 16.4033C93.9215 16.6876 93.8362 16.9008 93.7722 17.0288C92.8127 19.3316 92.0451 21.8264 91.6613 23.9374L91.2775 24.3212C88.9746 26.624 86.4798 28.1593 84.5608 28.9269C82.6417 29.6945 81.2984 29.8864 80.5308 29.6945C79.7631 28.9269 79.5712 27.5836 79.955 26.2402V26.0483C82.6417 25.4726 84.177 24.8969 85.1365 23.7454C85.7122 23.1697 86.096 22.0183 86.2879 21.0588C86.4798 20.2912 86.2879 19.3316 85.7122 18.7559C85.1365 18.1802 84.3689 18.1802 83.6012 18.564C83.4287 18.7365 83.1787 18.9478 82.9034 19.1804C82.5661 19.4654 82.191 19.7823 81.8741 20.0993C80.7227 21.4426 79.5712 23.1697 78.9955 24.8969C78.1993 25.1244 77.3358 25.2844 76.4048 25.457C75.765 25.5756 75.0933 25.7001 74.3898 25.8564C74.2029 25.8876 74.0109 25.9187 73.8139 25.9507C72.7972 26.1157 71.6458 26.3025 70.3598 26.624V26.0483C68.4407 15.8773 39.6549 18.7559 38.5034 18.9478H37.9277C38.161 18.8701 38.3942 18.7608 38.6402 18.6456C39.0014 18.4764 39.3901 18.2944 39.8468 18.1802C43.8768 16.645 50.4016 14.1502 53.4721 10.3121C55.0073 8.393 55.583 6.09014 55.3911 4.17109C55.1992 3.21156 55.0073 2.25203 54.4316 1.67631C53.8559 0.908688 53.2802 0.332965 52.3206 0.14106C50.9773 -0.242752 49.2502 0.141083 46.9473 1.48442C45.9878 2.06014 45.0282 2.63585 44.2606 3.40348C42.9173 4.363 41.9577 5.32251 41.382 5.89823C37.352 9.92824 33.5139 15.4935 30.4434 20.8669C29.6759 22.4019 28.9084 23.7451 28.1408 25.0883L28.1405 25.0888C27.7567 22.9778 26.9891 20.4831 26.0296 17.9883C25.262 16.0692 24.3024 14.534 22.9591 13.1906C21.232 11.4635 18.9291 10.3121 16.0505 9.92825C13.3638 9.54444 10.8691 9.73635 8.56618 9.92825C6.26332 10.3121 4.15236 10.6959 2.80902 11.0797C2.58419 11.0797 2.42521 11.1455 2.2935 11.2001C2.20037 11.2387 2.12088 11.2716 2.04139 11.2716C0.889959 11.6554 0.31424 11.8473 0.31424 12.423C0.31424 12.9987 0.698051 13.1907 1.27377 13.3826C1.65758 13.3826 2.0414 13.5745 2.61711 13.9583C4.72808 15.1097 7.03093 17.2207 9.14189 19.3316C13.3638 23.3616 17.3938 27.1998 20.6562 24.8969C21.2319 24.5131 21.6158 24.1293 21.8077 23.5536C23.7267 19.1397 13.7476 13.3826 9.14189 14.3421C11.8286 14.534 23.5348 19.9073 19.6967 23.7454C17.3938 25.2807 13.7476 21.8264 10.1014 18.3721L10.1014 18.3721C9.73625 18.0373 9.37591 17.7026 9.01886 17.3709C7.12425 15.611 5.32242 13.9372 3.38473 12.8068H3.19282C4.53616 12.423 6.45522 12.0392 8.56618 11.8473C10.8691 11.4635 13.1719 11.4635 15.6667 11.8473C18.3534 12.2311 20.2724 13.1906 21.8077 14.7259C23.3429 16.0692 24.4943 18.1802 25.262 20.4831C26.2215 23.1697 26.7972 25.4726 27.181 27.7755C24.8781 32.5731 23.151 37.1788 22.1915 40.2493C21.6158 42.1684 21.6158 43.5117 21.8077 44.2793C21.9996 44.855 22.3834 45.047 22.7672 45.2389C23.151 45.4308 23.7267 45.2389 24.1105 45.047C24.8782 44.6632 26.0296 43.5117 26.7972 41.9765C28.1405 39.4817 29.292 35.8355 29.1001 31.0379V31.0378C29.1001 30.0783 29.1001 29.1188 28.9082 28.1593C29.8677 26.2402 31.0191 24.1293 32.1706 22.2102C35.241 16.8368 38.8873 11.6554 42.9173 7.62539C43.4398 6.92871 44.2784 6.23203 45.2898 5.39188C45.3928 5.30633 45.4975 5.21929 45.6039 5.13062C46.3716 4.5549 47.1392 3.97919 48.0987 3.40348C50.0178 2.25204 51.3611 2.06013 52.3206 2.25203C52.7045 2.25203 53.0883 2.63583 53.4721 3.01964C53.8559 3.59536 54.0478 4.17109 54.0478 4.74681C54.2397 6.47396 53.664 8.393 52.5126 9.73634C49.634 13.1906 43.493 15.6854 39.6549 17.2207L39.6548 17.2207C38.8872 17.6045 38.1196 17.9883 37.5439 18.1802L36.3925 18.7559C35.8168 19.1397 35.6249 19.5235 35.6249 19.9073C35.8168 20.4831 36.2006 20.675 36.9682 20.8669C37.5439 21.0588 38.1196 21.0588 39.0792 21.0588C39.0792 21.0588 67.6731 17.7964 69.2083 26.8159V27.3917C68.9818 27.437 68.7339 27.4823 68.4721 27.5301C67.6252 27.6849 66.6336 27.8661 65.754 28.1593C56.9264 30.2702 50.0178 32.765 44.8363 35.2598C36.5844 39.2898 32.3625 43.1279 30.6353 45.2389C29.8677 46.0065 29.4839 46.5822 29.4839 46.5822L29.292 46.966C29.292 47.5417 29.6758 48.1175 30.2515 48.3094C30.8272 48.5013 31.4029 48.5013 31.9787 48.5013C35.2411 48.5013 41.5739 46.3903 41.9578 46.1984C41.9784 46.1778 42.2998 46.0665 42.8599 45.8726C47.5163 44.2603 68.6673 36.9369 70.5517 28.5431L70.5517 28.5431C72.087 28.1593 73.6222 27.7755 74.9655 27.5836C75.8788 27.4694 76.6562 27.2873 77.3787 27.1181C77.8707 27.0029 78.3371 26.8937 78.8036 26.8159C78.6117 28.5431 78.8036 30.0783 79.955 31.2298C80.051 31.3257 80.1949 31.3737 80.3389 31.4217C80.4828 31.4697 80.6267 31.5176 80.7227 31.6136C81.6822 31.9974 83.4094 31.8055 85.7122 30.8459C87.4394 30.0783 89.7422 28.735 91.8532 26.8159V27.1998C91.6613 28.3512 91.8532 29.5026 92.0451 30.2703C92.4289 31.2298 92.8127 31.8055 93.7722 32.1893C93.9641 32.3812 94.156 32.3812 94.5397 32.3812H94.5399C95.6913 32.5731 97.0346 32.1893 98.7618 31.0379C100.205 30.1358 101.818 28.8945 104.079 27.1545C104.223 27.0437 104.37 26.9308 104.519 26.8159C104.519 27.0079 104.471 27.1998 104.423 27.3917C104.375 27.5836 104.327 27.7755 104.327 27.9674C104.327 28.735 104.327 29.5026 104.711 30.2703C104.711 30.4621 104.711 30.4622 104.903 30.654L104.903 30.6541C105.67 31.8055 107.014 32.1893 108.549 31.9974C110.084 31.8055 111.619 31.2298 112.963 30.6541C113.539 30.4622 114.306 30.0783 114.882 29.6945L115.458 30.8459C116.033 31.8055 117.185 32.3812 118.72 32.3812C122.174 32.3812 126.012 27.9674 128.123 25.4726C128.197 25.3993 128.27 25.354 128.333 25.3153C128.434 25.2527 128.507 25.2074 128.507 25.0888C128.528 25.3797 128.549 25.6931 128.57 26.0212C128.75 28.7233 128.995 32.4227 129.85 32.765C130.426 32.9569 131.002 32.765 131.194 31.8055C131.578 30.2702 134.264 27.1998 136.183 25.4726C136.279 25.5686 136.327 25.7125 136.375 25.8564C136.423 26.0003 136.471 26.1443 136.567 26.2402C136.951 26.8159 137.911 27.3917 139.062 27.5836C139.638 27.7755 140.405 27.7755 141.173 27.7755C140.981 29.1188 141.173 30.4621 142.132 31.4217C143.284 32.765 145.779 33.5326 149.809 32.765C149.888 32.765 150.001 32.7321 150.132 32.6935C150.319 32.639 150.543 32.5731 150.768 32.5731C151.069 32.5175 151.427 32.4502 151.835 32.3734ZM186.463 32.3812C186.463 32.3812 186.463 28.735 188.574 29.8864C190.876 31.0378 186.463 32.3812 186.463 32.3812ZM110.852 16.453C110.852 17.4126 110.66 18.1802 110.276 18.3721C109.7 18.9478 108.549 18.9478 107.973 17.9883C107.014 16.6449 107.781 15.6854 109.125 15.3016C109.317 15.3016 109.508 15.1097 109.892 14.726L109.892 14.7259L109.892 14.7258C110.276 14.342 110.852 13.7663 111.619 12.8068L111.62 12.8068C112.387 12.0392 113.155 11.2716 113.922 10.8878C114.69 10.504 115.266 10.3121 116.033 10.1202C116.317 10.1202 116.461 10.1202 116.465 10.1432C116.469 10.1669 116.325 10.2148 116.033 10.3121C115.458 10.504 114.69 10.8878 113.922 11.4635C113.155 11.8473 112.387 12.6149 111.811 13.5744C111.236 14.534 110.852 15.4935 110.852 16.453ZM143.284 26.2402C143.476 25.8564 143.668 25.4726 143.86 25.2807C144.819 24.1293 145.971 23.3616 146.93 23.7454L147.314 24.1293V24.3212C147.122 25.2807 145.395 25.8564 143.284 26.2402ZM116.154 26.6842C116.192 26.5911 116.225 26.5116 116.225 26.4321C116.801 25.0888 117.76 23.9374 119.104 23.5536H119.488C119.488 23.5536 119.296 23.7455 119.296 23.9374C118.912 24.705 117.952 25.8564 116.225 27.0078L116.033 27.1998C116.033 26.9749 116.099 26.8159 116.154 26.6842ZM94.8549 20.4215C95.1468 19.6401 95.4553 18.8142 95.6913 17.9883C95.8832 17.6045 96.267 16.645 96.8427 14.9178C97.0105 14.5262 97.1784 14.1183 97.3509 13.6989C97.7704 12.6794 98.2179 11.5917 98.7618 10.504C99.9132 8.20111 100.681 6.85777 101.257 6.09014C101.257 7.24158 100.681 9.16064 99.9132 11.4635C98.378 15.6854 96.4589 19.1397 94.348 21.8264C94.4958 21.3829 94.6721 20.9109 94.8549 20.4215ZM81.1065 24.8969C81.6822 23.7455 82.4498 22.4021 83.2174 21.6345C83.5824 21.2695 83.9474 20.9817 84.2146 20.7709C84.3689 20.6493 84.4905 20.5533 84.5608 20.4831C84.7527 20.2912 84.9446 20.2911 84.9446 20.2911C85.1365 20.2911 85.1365 20.8669 85.1365 21.2507C84.9446 22.0183 84.7527 22.7859 84.3689 23.1697C83.7932 23.9373 82.8336 24.5131 81.1065 24.8969ZM66.1378 29.6945L69.0164 29.1188C66.1378 37.1788 41.5739 44.8551 41.7658 44.6632C41.7658 44.6632 35.433 46.966 32.1706 46.966H31.211L31.9787 46.1984C33.5139 44.2793 37.7358 40.4412 45.6039 36.6031C50.7854 34.1083 57.5021 31.6136 66.1378 29.6945ZM23.9186 41.0169C24.6863 38.5222 26.0296 34.876 27.7567 31.0379V31.4217C27.9486 35.8355 26.9891 39.2898 25.6458 41.5927C24.8782 42.7441 24.1105 43.7036 23.5348 44.0874C23.3429 43.5117 23.5348 42.5522 23.9186 41.0169ZM68.2485 44.4713L67.6728 44.2793H67.8647V39.2898C67.8647 39.0979 68.0566 39.0979 68.0566 39.0979H70.1676C70.9352 39.0979 71.7028 39.6736 71.7028 40.6331C71.7028 41.4008 71.1271 41.9765 70.5514 42.1684L71.5109 44.0874C71.5109 44.0874 71.5109 44.2793 71.319 44.2793H70.7433H70.5514L69.5919 42.3603H68.4404V44.2793C68.4404 44.4712 68.2485 44.4713 68.2485 44.4713ZM68.4404 39.8655V41.5927V41.7846H69.7838C70.3595 41.7846 70.7433 41.4008 70.7433 40.8251C70.7433 40.2493 70.1676 39.8655 69.7838 39.8655H68.4404ZM78.8033 44.4713L75.7328 44.2793V39.2898C75.7328 39.0979 75.9247 39.0979 75.9247 39.0979H78.8033C78.9952 39.0979 78.9952 39.2898 78.9952 39.2898V39.6736C78.9952 39.8655 78.8033 39.8655 78.8033 39.8655H76.5005V41.4008H78.4195C78.6114 41.4008 78.6114 41.5927 78.6114 41.5927V41.9765C78.6114 42.1684 78.4195 42.1684 78.4195 42.1684H76.5005V43.7036H78.8033C78.9952 43.7036 78.9952 43.8955 78.9952 43.8955V44.2793C78.9952 44.4712 78.8033 44.4713 78.8033 44.4713ZM84.7524 44.4713C83.9848 44.4713 83.4091 44.0874 83.2172 43.8955C83.1323 43.8107 83.085 43.7633 83.0918 43.7535C83.1003 43.7412 83.195 43.7885 83.4091 43.8955C83.4091 43.7996 83.457 43.7516 83.505 43.7036C83.553 43.6557 83.601 43.6077 83.601 43.5117H83.7929C83.7929 43.7036 84.3686 44.0874 84.9443 44.0874C85.3281 44.0874 85.7119 43.7036 85.7119 43.3198C85.7119 42.936 85.3281 42.7441 84.5606 42.3603L84.5605 42.3603C83.7929 42.1684 83.2172 41.5927 83.2172 40.8251C83.2172 40.2493 83.601 39.4817 84.7524 39.4817C85.52 39.4817 86.0957 39.8655 86.0957 39.8655V40.0574L85.9038 40.2493H85.7119C85.7119 40.2493 85.1362 39.8655 84.7524 39.8655C84.1767 39.8655 83.9848 40.2493 83.9848 40.4412C83.9848 40.825 84.3686 41.2089 84.9443 41.4008C85.7119 41.7846 86.4795 42.1684 86.4795 43.1279C86.4795 43.8955 85.7119 44.4713 84.7524 44.4713ZM91.8529 44.4713L91.2772 44.2793H91.0853V39.8655H89.9339C89.7419 39.8655 89.7419 39.6736 89.7419 39.6736V39.2898C89.7419 39.0979 89.9339 39.0979 89.9339 39.0979H93.1962C93.3881 39.0979 93.3882 39.2898 93.3882 39.2898V39.6736C93.3882 39.8655 93.1962 39.8655 93.1962 39.8655H92.0448V44.2793C92.0448 44.4712 91.8529 44.4713 91.8529 44.4713ZM97.0343 44.2793H96.6505C96.4586 44.2793 96.4586 44.2794 96.2667 44.0874L98.5696 39.0979H98.7615H98.9534L101.256 44.0874C101.256 44.0874 101.256 44.2793 101.064 44.2793H100.681C100.489 44.2793 100.489 44.0874 100.489 44.0874L100.105 43.1279H97.6101C97.6101 43.3198 97.4182 43.7036 97.2263 44.0874C97.2263 44.2794 97.0343 44.2793 97.0343 44.2793ZM98.9534 40.4412L97.9939 42.5522H99.9129L98.9534 40.4412ZM107.205 44.2793C106.054 44.2793 105.286 43.5117 105.286 42.3603H105.094V39.2898C105.094 39.0979 105.286 39.0979 105.286 39.0979H105.862C106.054 39.0979 106.054 39.2898 106.054 39.2898V42.3603C106.054 43.1279 106.438 43.7036 107.205 43.7036C107.973 43.7036 108.357 43.1279 108.357 42.3603V39.2898C108.357 39.0979 108.549 39.0979 108.549 39.0979H109.124C109.316 39.0979 109.316 39.2898 109.316 39.2898V42.3603C109.316 43.3198 108.357 44.2793 107.205 44.2793ZM114.498 44.4713L113.922 44.2793H114.306V39.2898C114.306 39.0979 114.498 39.0979 114.498 39.0979H116.417C117.184 39.0979 117.952 39.6736 117.952 40.6331C117.952 41.4008 117.376 41.9765 116.801 42.1684L117.76 44.0874C117.76 44.0874 117.76 44.2793 117.568 44.2793H116.993H116.801L115.841 42.3603H114.69V44.2793C114.69 44.4712 114.498 44.4713 114.498 44.4713ZM114.69 39.8655V41.5927V41.7846H116.033C116.609 41.7846 116.993 41.4008 116.993 40.8251C116.993 40.2493 116.609 39.8655 116.033 39.8655H114.69ZM121.79 44.2793H121.406C121.406 44.2793 121.214 44.2794 121.023 44.0874L123.325 39.0979H123.517H123.709L126.012 44.0874C126.012 44.0874 126.012 44.2793 125.82 44.2793H125.436C125.244 44.2793 125.244 44.0874 125.244 44.0874L124.861 43.1279H122.366C122.366 43.3198 122.174 43.7036 121.982 44.0874C121.982 44.2794 121.79 44.2793 121.79 44.2793ZM123.709 40.4412L122.75 42.5522H124.669L123.709 40.4412ZM130.81 44.4713L130.234 44.2793V39.2898C130.234 39.0979 130.426 39.0979 130.426 39.0979H130.618L133.88 42.7441V39.2898C133.88 39.0979 134.072 39.0979 134.072 39.0979H134.456C134.648 39.0979 134.648 39.2898 134.648 39.2898V44.2793C134.648 44.4712 134.456 44.4713 134.456 44.4713H134.264L131.002 40.6331V44.2793C131.002 44.4712 130.81 44.4713 130.81 44.4713ZM140.405 44.4713L139.829 44.2793H139.637V39.8655H138.486C138.294 39.8655 138.294 39.6736 138.294 39.6736V39.2898C138.294 39.0979 138.486 39.0979 138.486 39.0979H141.748C141.94 39.0979 141.94 39.2898 141.94 39.2898V39.6736C141.94 39.8655 141.748 39.8655 141.748 39.8655H140.597V44.2793C140.597 44.4712 140.405 44.4713 140.405 44.4713ZM149.425 44.2793H149.233L146.738 39.2898C146.738 39.2898 146.738 39.0979 146.93 39.0979H147.506H147.697L149.425 42.7441L150.96 39.0979H151.152H151.727C151.919 39.0979 151.919 39.2898 151.919 39.2898L149.616 44.2793H149.425ZM158.828 44.4713L155.757 44.2793V39.2898C155.757 39.0979 155.949 39.0979 155.949 39.0979H158.828C159.02 39.0979 159.02 39.2898 159.02 39.2898V39.6736C159.02 39.8655 158.828 39.8655 158.828 39.8655H156.525V41.4008H158.444C158.636 41.4008 158.636 41.5927 158.636 41.5927V41.9765C158.636 42.1684 158.444 42.1684 158.444 42.1684H156.525V43.7036H158.828C159.02 43.7036 159.02 43.8955 159.02 43.8955V44.2793C159.02 44.4712 158.828 44.4713 158.828 44.4713ZM165.545 44.4713C164.009 44.4713 162.858 43.3198 162.858 41.7846C162.858 40.2493 164.201 39.0979 165.737 38.906C166.312 38.906 166.888 39.2898 167.464 39.6736V39.8655L167.08 40.2493H166.888C166.504 39.8655 165.928 39.6736 165.545 39.6736C164.393 39.6736 163.626 40.6331 163.626 41.5927C163.626 42.5522 164.585 43.5117 165.545 43.5117C166.12 43.5117 166.696 43.3198 166.696 43.3198V42.5522H165.928C165.737 42.5522 165.737 42.3603 165.737 42.3603V41.9765C165.737 41.7846 165.928 41.7846 165.928 41.7846H167.272C167.464 41.7846 167.464 41.9765 167.464 41.9765V43.7036V43.8955C167.464 43.8955 166.696 44.4713 165.545 44.4713ZM174.18 44.4713C172.645 44.4713 171.494 43.3198 171.494 41.7846C171.494 40.2493 172.645 39.0979 174.372 38.906C174.948 38.906 175.524 39.2898 176.099 39.6736V39.8655L175.716 40.2493H175.524C175.14 39.8655 174.564 39.6736 174.18 39.6736C173.029 39.6736 172.261 40.6331 172.261 41.5927C172.261 42.5522 173.029 43.5117 174.18 43.5117C174.756 43.5117 175.332 43.3198 175.332 43.3198V42.5522H174.564C174.372 42.5522 174.372 42.3603 174.372 42.3603V41.9765C174.372 41.7846 174.564 41.7846 174.564 41.7846H175.908C176.099 41.7846 176.099 41.9765 176.099 41.9765V43.7036V43.8955C176.099 43.8955 175.332 44.4713 174.18 44.4713ZM181.089 44.4713L180.513 44.2793H180.321V39.2898C180.321 39.0979 180.513 39.0979 180.513 39.0979H181.089C181.281 39.0979 181.281 39.2898 181.281 39.2898V44.2793C181.281 44.4712 181.089 44.4713 181.089 44.4713ZM188.957 44.4713L185.887 44.2793V39.2898C185.887 39.0979 186.079 39.0979 186.079 39.0979H188.957C189.149 39.0979 189.149 39.2898 189.149 39.2898V39.6736C189.149 39.8655 188.957 39.8655 188.957 39.8655H186.654V41.4008H188.573C188.765 41.4008 188.765 41.5927 188.765 41.5927V41.9765C188.765 42.1684 188.573 42.1684 188.573 42.1684H186.654V43.7036H188.957C189.149 43.7036 189.149 43.8955 189.149 43.8955V44.2793C189.149 44.4712 188.957 44.4713 188.957 44.4713Z" fill="#313030"/>
</svg>
