<svg width="149" height="69" viewBox="0 0 149 69" fill="none" xmlns="http://www.w3.org/2000/svg">
<path d="M3.84103 24.189L0 12.5783L2.56069 11.6107C3.20086 11.4495 4.00107 11.4495 4.64125 11.6107C5.28142 11.772 5.76155 12.0945 6.08163 12.7395C6.40172 13.0621 6.56176 13.3846 6.7218 13.8684C7.04189 14.6747 7.04189 15.3197 6.7218 15.9647C6.56176 16.126 6.40172 16.4485 6.24168 16.6098C6.7218 16.6098 7.04189 16.771 7.52202 17.0936C7.8421 17.4161 8.00215 17.7386 8.32223 18.0611C8.48228 18.2224 8.48228 18.5449 8.64232 18.8674C8.96241 19.6737 8.96241 20.3187 8.80236 20.8025C8.80236 21.2863 8.48228 21.7701 8.16219 22.0926C8.00215 22.5764 7.52202 22.8989 7.04189 23.0602L3.84103 24.189ZM3.52095 16.6098L4.32116 16.2873C4.80129 16.126 5.12137 15.6422 5.12137 15.1584C5.12137 14.9972 5.12137 14.6747 4.96133 14.3521C4.64125 14.0296 4.4812 13.7071 4.16112 13.5458C3.84103 13.3846 3.52095 13.3846 3.20086 13.5458L2.40064 13.7071L3.52095 16.6098ZM5.12137 21.7701L5.92159 21.4476C6.56176 21.2863 6.88185 20.8025 6.88185 20.1575C6.88185 19.9962 6.88185 19.6737 6.7218 19.3512C6.56176 18.7062 6.24168 18.2224 5.92159 18.0611C5.6015 17.8999 5.28142 17.8999 4.80129 18.0611L4.00107 18.3836L5.12137 21.7701Z" fill="#313030"/>
<path d="M18.8851 19.6737C18.0849 19.835 17.4447 19.835 16.6445 19.3512C16.0043 19.0287 15.5242 18.3836 15.3641 17.5773L12.9635 8.54678L14.724 8.063L17.1246 17.0935C17.1246 17.4161 17.2847 17.5773 17.6047 17.7386C17.9248 17.8998 18.0849 17.8998 18.405 17.8998C18.725 17.8998 18.8851 17.7386 19.0451 17.4161C19.2052 17.0935 19.2052 16.9323 19.2052 16.6098L16.8045 7.57922L18.565 7.09544L20.9656 16.2872C21.1257 17.0935 21.1257 17.7386 20.6456 18.5449C20.1654 19.0287 19.5253 19.5124 18.8851 19.6737Z" fill="#313030"/>
<path d="M28.4876 4.83777C29.4479 4.67651 30.2481 4.83777 30.8883 5.16029C31.3684 5.48281 31.6885 6.12785 31.8485 7.09541L32.1686 8.86926C32.3287 9.67556 32.1686 10.4819 31.6885 11.2882L34.0891 16.2872L32.1686 16.6097L30.2481 12.2557H30.0881L29.1278 12.417L30.0881 16.9323L28.3276 17.2548L25.9269 5.32155L28.4876 4.83777ZM30.2481 7.41793C30.0881 6.77289 29.768 6.45037 28.9678 6.61163L27.8475 6.77289L28.6477 10.6431L29.768 10.4819C30.0881 10.4819 30.2481 10.3206 30.4081 9.99808C30.5682 9.67556 30.5682 9.5143 30.5682 9.19178L30.2481 7.41793Z" fill="#313030"/>
<path d="M43.2116 14.8359C42.4114 14.9971 41.7712 14.8359 41.1311 14.3521C40.4909 13.8683 40.1708 13.2233 40.0108 12.417L39.0505 5.80534C38.8905 4.99904 39.0505 4.354 39.5306 3.70896C40.0108 3.06392 40.6509 2.7414 41.4511 2.58014C42.2514 2.41888 42.8915 2.58014 43.5317 3.06392C44.1719 3.5477 44.492 4.19274 44.652 4.99904L44.812 6.28912L42.8915 6.61163L42.7315 5.1603C42.7315 4.83778 42.5714 4.67652 42.2514 4.51526C42.0913 4.354 41.7712 4.19274 41.4511 4.354C41.1311 4.354 40.971 4.51526 40.811 4.83778C40.6509 4.99904 40.6509 5.32156 40.6509 5.64408L41.6112 12.0945C41.6112 12.417 41.7712 12.5782 42.0913 12.7395C42.2514 12.9008 42.5714 13.062 42.8915 12.9008C43.2116 12.9008 43.3717 12.7395 43.5317 12.417C43.6917 12.2557 43.8518 11.9332 43.6917 11.6107L43.3717 9.19179L42.4114 9.35305L42.0913 7.57919L44.9721 7.09541L45.6123 11.2882C45.7723 12.0945 45.6123 12.7395 45.1321 13.3845C44.652 14.3521 44.0118 14.6746 43.2116 14.8359Z" fill="#313030"/>
<path d="M52.4941 13.5458L51.5338 1.29005L56.6552 0.806274L56.8152 2.74139L53.4543 3.06391L53.7744 6.28911L56.1751 6.12785L56.3351 7.9017L53.9345 8.22422L54.2545 11.4494L57.6154 11.1269L57.7755 13.062L52.4941 13.5458Z" fill="#313030"/>
<path d="M66.4178 0.322556C67.3781 0.322556 68.1783 0.483815 68.6584 1.12885C69.1386 1.61263 69.4586 2.25767 69.4586 3.22523V4.99909C69.4586 5.80539 69.1386 6.61169 68.4984 7.25673L70.0988 12.5783H68.1783L66.898 8.06302H66.7379H65.6176L65.7776 12.5783H64.0172L63.537 0.322556H66.4178ZM67.6982 3.22523C67.6982 2.58019 67.3781 2.25767 66.5779 2.25767H65.4576L65.6176 6.12791H66.7379C67.058 6.12791 67.218 5.96665 67.5381 5.80539C67.6982 5.64413 67.8582 5.32161 67.8582 4.99909L67.6982 3.22523Z" fill="#313030"/>
<path d="M95.0655 10.4819C95.0655 11.2882 94.7454 11.9332 94.1053 12.417C93.4651 12.9008 92.8249 13.2233 92.0247 13.062L89.1439 12.9008L90.1042 0.806274L92.9849 0.967534C93.7852 0.967534 94.4253 1.29005 94.9055 1.93509C95.3856 2.58013 95.7057 3.22517 95.5456 4.03147L95.0655 10.4819ZM91.0644 11.1269L92.1847 11.2882C92.5048 11.2882 92.6649 11.2882 92.9849 10.9656C93.145 10.8044 93.305 10.4819 93.305 10.3206L93.7852 4.03147C93.7852 3.70895 93.7852 3.54769 93.4651 3.22517C93.305 3.06391 92.985 2.90265 92.8249 2.90265L91.7046 2.74139L91.0644 11.1269Z" fill="#313030"/>
<path d="M102.748 0L104.508 0.16126L103.868 2.90268L102.748 2.74142V0Z" fill="#313030"/>
<path d="M113.951 15.9647L108.989 15.1584L111.07 3.06395L112.83 3.38647L111.07 13.5458L114.271 14.1909L113.951 15.9647Z" fill="#313030"/>
<path d="M122.642 5.17573L120.099 17.1606L121.821 17.5315L124.364 5.54664L122.642 5.17573Z" fill="#313030"/>
<path d="M131.075 19.9962C130.275 19.8349 129.635 19.3512 129.315 18.7061C128.995 18.0611 128.835 17.2548 128.995 16.4485L130.755 9.99809C130.915 9.1918 131.395 8.54676 132.035 8.22424C132.676 7.90172 133.476 7.74046 134.276 7.90172C135.076 8.06298 135.716 8.54676 136.037 9.1918C136.357 9.83684 136.517 10.6431 136.357 11.4494L136.037 12.7395L134.276 12.2557L134.596 10.8044C134.596 10.4819 134.596 10.3206 134.436 9.99809C134.276 9.83683 134.116 9.67558 133.796 9.67558C133.476 9.67558 133.316 9.67558 132.996 9.83684C132.676 9.99809 132.516 10.1594 132.516 10.4819L130.755 16.9323C130.755 17.2548 130.755 17.416 130.915 17.7386C131.075 18.0611 131.235 18.2223 131.555 18.2223C131.875 18.2223 132.035 18.2223 132.356 18.0611C132.676 17.8998 132.836 17.7386 132.836 17.416L133.316 15.8034L135.076 16.2872L134.596 17.8998C134.436 18.7061 133.956 19.3512 133.316 19.6737C132.676 19.9962 131.875 20.1575 131.075 19.9962Z" fill="#313030"/>
<path d="M140.198 22.4151L144.039 10.9656L149 12.5782L148.36 14.3521L145.159 13.2233L144.199 16.4485L146.439 17.2548L145.799 19.0286L143.559 18.2223L142.438 21.2862L145.639 22.4151L144.999 24.1889L140.198 22.4151Z" fill="#313030"/>
<path d="M22.8861 54.1833C22.8861 54.6671 22.566 54.8284 22.2459 54.8284C21.9259 54.8284 21.6058 54.5058 21.6058 54.1833C21.6058 53.8608 21.9259 53.5383 22.2459 53.5383C22.566 53.377 22.8861 53.6995 22.8861 54.1833Z" fill="#313030"/>
<path d="M27.0473 54.9895L26.7272 55.6346H25.7669L27.3673 51.7643H28.3276L29.928 55.6346H28.9678L28.6477 54.9895H27.0473ZM27.8475 52.7319L27.2073 54.1832H28.3276L27.8475 52.7319Z" fill="#313030"/>
<path d="M36.3298 55.6346V53.2157L35.3695 55.3121H34.7293L33.7691 53.2157V55.6346H32.9689V51.7643H33.9291L35.0494 54.022L36.0097 51.7643H37.13V55.6346H36.3298Z" fill="#313030"/>
<path d="M41.4511 52.5706V53.3769H43.3716V54.022H41.4511V54.8283H43.5317V55.6346H40.4908V51.7643H43.5317V52.5706H41.4511Z" fill="#313030"/>
<path d="M48.493 54.5058H47.6928V55.6346H46.7325V51.7643H48.493C49.4533 51.7643 50.0934 52.2481 50.0934 53.0544C50.0934 53.6995 49.7734 54.022 49.4533 54.3445L50.2535 55.6346H49.1332L48.493 54.5058ZM48.493 53.8607C48.9731 53.8607 49.1332 53.6995 49.1332 53.2157C49.1332 52.8932 48.8131 52.5706 48.493 52.5706H47.6928V53.8607H48.493Z" fill="#313030"/>
<path d="M54.4146 51.7643H53.4543V55.6346H54.4146V51.7643Z" fill="#313030"/>
<path d="M60.9764 52.4094L60.3362 53.0544C60.0161 52.7319 59.6961 52.5706 59.376 52.5706C58.7358 52.5706 58.2557 53.0544 58.2557 53.6995C58.2557 54.3445 58.7358 54.8283 59.376 54.8283C59.6961 54.8283 60.0161 54.667 60.3362 54.3445L60.9764 54.9895C60.4963 55.4733 60.0161 55.6346 59.376 55.6346C58.2557 55.6346 57.2954 54.8283 57.2954 53.6995C57.2954 52.5706 58.0956 51.7643 59.376 51.7643C60.0161 51.7643 60.6563 52.0869 60.9764 52.4094Z" fill="#313030"/>
<path d="M64.9775 54.9895L64.6574 55.6346H63.6971L65.2975 51.7643H66.2578L67.8582 55.6346H66.898L66.5779 54.9895H64.9775ZM65.7777 52.7319L65.2975 54.1832H66.4178L65.7777 52.7319Z" fill="#313030"/>
<path d="M73.6198 55.6346L71.8593 53.2157V55.6346H70.899V51.7643H71.6993L73.4597 54.1832V51.7643H74.42V55.6346H73.6198Z" fill="#313030"/>
<path d="M82.5822 52.5706V53.3769H84.3427V54.1832H82.5822V55.6346H81.6219V51.7643H84.5027V52.5706H82.5822Z" fill="#313030"/>
<path d="M91.5446 53.6995C91.5446 54.8283 90.5843 55.6346 89.464 55.6346C88.3437 55.6346 87.3835 54.8283 87.3835 53.6995C87.3835 52.5706 88.3437 51.7643 89.464 51.7643C90.5843 51.7643 91.5446 52.5706 91.5446 53.6995ZM88.3437 53.6995C88.3437 54.3445 88.8238 54.8283 89.464 54.8283C90.1042 54.8283 90.5843 54.3445 90.5843 53.6995C90.5843 53.0544 90.1042 52.5706 89.464 52.5706C88.8238 52.5706 88.3437 53.0544 88.3437 53.6995Z" fill="#313030"/>
<path d="M98.4264 53.6995C98.4264 54.8283 97.4662 55.6346 96.3459 55.6346C95.2256 55.6346 94.2653 54.8283 94.2653 53.6995C94.2653 52.5706 95.2256 51.7643 96.3459 51.7643C97.4662 51.7643 98.4264 52.5706 98.4264 53.6995ZM95.2256 53.6995C95.2256 54.3445 95.7057 54.8283 96.3459 54.8283C96.986 54.8283 97.4662 54.3445 97.4662 53.6995C97.4662 53.0544 96.986 52.5706 96.3459 52.5706C95.7057 52.5706 95.2256 53.0544 95.2256 53.6995Z" fill="#313030"/>
<path d="M103.228 51.7643C104.508 51.7643 105.308 52.5706 105.308 53.6995C105.308 54.8283 104.508 55.6346 103.228 55.6346H101.627V51.7643H103.228ZM102.588 54.8283H103.228C103.868 54.8283 104.188 54.3445 104.188 53.6995C104.188 53.0544 103.708 52.5706 103.068 52.5706H102.428V54.8283H102.588Z" fill="#313030"/>
<path d="M109.309 51.7643H108.349V55.6346H109.309V51.7643Z" fill="#313030"/>
<path d="M115.391 55.6346L113.631 53.2157V55.6346H112.67V51.7643H113.631L115.391 54.1832V51.7643H116.191V55.6346H115.391Z" fill="#313030"/>
<path d="M122.913 53.6995V55.1508C122.433 55.4733 121.793 55.6346 121.313 55.6346C120.192 55.6346 119.232 54.8283 119.232 53.6995C119.232 52.5706 120.192 51.7643 121.313 51.7643C121.953 51.7643 122.433 51.9256 122.913 52.4094L122.433 53.0544C122.113 52.7319 121.793 52.5706 121.473 52.5706C120.832 52.5706 120.352 53.0544 120.352 53.6995C120.352 54.3445 120.832 54.8283 121.473 54.8283C121.633 54.8283 121.953 54.8283 122.113 54.667V53.6995H122.913Z" fill="#313030"/>
<path d="M127.394 54.1833C127.394 54.6671 127.074 54.8284 126.754 54.8284C126.434 54.8284 126.114 54.5058 126.114 54.1833C126.114 53.8608 126.434 53.5383 126.754 53.5383C127.234 53.377 127.394 53.6995 127.394 54.1833Z" fill="#313030"/>
<path d="M35.0494 36.4447V32.5745H36.8099V33.0583H35.6896V34.1871H36.4898V34.8321H35.6896V35.7997H36.8099V36.4447H35.0494Z" fill="#313030"/>
<path d="M41.2911 35.4771C41.2911 35.7996 41.2911 35.9609 41.131 36.1222C40.971 36.2834 40.971 36.2834 40.6509 36.4447C40.4909 36.4447 40.4909 36.4447 40.3308 36.4447C40.1708 36.4447 39.8507 36.4447 39.6906 36.2834C39.5306 36.1222 39.5306 36.1222 39.3706 35.9609C39.3706 35.7996 39.2105 35.6384 39.2105 35.4771H39.6906C39.6906 35.6384 39.8507 35.7996 39.8507 35.9609L40.0107 36.1222C40.1708 36.1222 40.1708 36.1222 40.3308 35.9609C40.3308 35.9609 40.3308 35.7996 40.3308 35.6384C40.3308 35.4771 40.3308 35.3159 40.1708 35.1546C40.0107 34.9933 39.8507 34.8321 39.6906 34.6708C39.5306 34.5096 39.3706 34.3483 39.2105 34.187C39.0505 34.0258 39.0505 33.8645 39.0505 33.7033C39.0505 33.3807 39.2105 33.0582 39.3706 32.897C39.5306 32.7357 39.6906 32.7357 39.8507 32.7357C40.0107 32.7357 40.1708 32.7357 40.3308 32.897C40.4909 32.897 40.4909 33.0582 40.6509 33.2195C40.6509 33.3807 40.8109 33.542 40.8109 33.7033L40.3308 33.8645C40.3308 33.7033 40.3308 33.542 40.1708 33.542L40.0107 33.3807C39.8507 33.3807 39.8507 33.3807 39.6906 33.542C39.6906 33.542 39.6906 33.7033 39.6906 33.8645C39.6906 34.0258 39.6906 34.187 39.8507 34.3483C39.8507 34.3483 40.0107 34.5096 40.1708 34.6708C40.3308 34.8321 40.3308 34.8321 40.4909 34.8321C40.6509 34.9933 40.8109 35.1546 40.8109 35.3159C40.8109 35.3159 40.8109 35.4771 40.971 35.4771C41.131 35.3159 41.2911 35.3159 41.2911 35.4771Z" fill="#313030"/>
<path d="M44.3319 33.0583H43.6917V32.5745H45.6123V33.0583H44.9721V36.4447H44.3319V33.0583Z" fill="#313030"/>
<path d="M48.653 35.7997H48.0129V36.4447H48.653V35.7997Z" fill="#313030"/>
<path d="M100.027 33.7033C100.027 33.3808 100.187 33.0583 100.347 32.897C100.507 32.7358 100.667 32.5745 100.987 32.5745C101.307 32.5745 101.467 32.7358 101.627 32.897C101.787 33.0583 101.947 33.3808 101.947 33.542C101.947 33.8646 101.947 34.0258 101.787 34.3483C101.787 34.5096 101.627 34.6709 101.307 34.9934C101.307 35.1546 101.147 35.1546 100.987 35.4772L100.827 35.6384C100.827 35.7997 100.667 35.7997 100.667 35.9609H101.787V36.606H99.8668V36.1222C99.8668 36.1222 99.8668 35.9609 100.027 35.9609L100.187 35.7997L100.347 35.6384C100.507 35.4772 100.507 35.3159 100.827 34.9934C100.987 34.6709 101.147 34.5096 101.307 34.3483C101.307 34.1871 101.467 34.0258 101.467 33.8646C101.467 33.7033 101.467 33.7033 101.307 33.542C101.307 33.3808 101.147 33.3808 100.987 33.3808C100.827 33.3808 100.667 33.5421 100.667 33.7033V33.8646V34.0258L100.027 33.7033Z" fill="#313030"/>
<path d="M106.269 35.6384C106.269 35.9609 106.108 36.1222 105.948 36.2835C105.788 36.4447 105.628 36.606 105.308 36.606C104.988 36.606 104.828 36.4447 104.668 36.2835C104.508 36.1222 104.348 35.9609 104.348 35.6384V33.542C104.348 33.2195 104.508 33.0583 104.668 32.897C104.828 32.7358 104.988 32.5745 105.308 32.5745C105.628 32.5745 105.788 32.7358 105.948 32.897C106.108 33.0583 106.269 33.3808 106.269 33.542V35.6384ZM105.628 33.3808C105.628 33.2195 105.628 33.2195 105.468 33.2195L105.308 33.0583C105.148 33.0583 105.148 33.0583 105.148 33.2195L104.988 33.3808V35.4772C104.988 35.6384 104.988 35.6384 105.148 35.6384L105.308 35.7997C105.468 35.7997 105.468 35.7997 105.468 35.6384L105.628 35.4772V33.3808Z" fill="#313030"/>
<path d="M109.149 36.4447V33.3808H108.669V32.897C108.829 32.897 108.989 32.897 109.149 32.7357C109.309 32.5745 109.309 32.5745 109.469 32.4132H109.95V36.2834H109.149V36.4447Z" fill="#313030"/>
<path d="M113.31 33.5421C113.31 33.3808 113.31 33.2196 113.31 33.2196L113.15 33.0583C112.99 33.0583 112.99 33.0583 112.99 33.2196C112.99 33.2196 112.99 33.3808 112.99 33.5421V34.3484C113.15 34.1871 113.31 34.1871 113.47 34.1871C113.791 34.1871 113.951 34.3484 114.111 34.5096C114.271 34.6709 114.271 34.8322 114.271 35.1547V35.7997C114.271 36.1222 114.111 36.2835 113.951 36.4448C113.791 36.606 113.631 36.7673 113.31 36.7673C112.99 36.7673 112.83 36.606 112.67 36.4448C112.51 36.2835 112.35 36.1222 112.35 35.7997V33.7033C112.35 33.5421 112.35 33.3808 112.51 33.2196C112.67 33.0583 112.67 32.897 112.83 32.897C112.99 32.897 112.99 32.897 113.15 32.897C113.47 32.897 113.631 33.0583 113.791 33.2196C113.951 33.3808 114.111 33.5421 114.111 33.8646V34.0259H113.31V33.5421ZM112.67 35.4772C112.67 35.6385 112.67 35.6385 112.67 35.6385L112.83 35.7997C112.99 35.7997 112.99 35.7997 112.99 35.6385V35.4772V34.8322C112.99 34.6709 112.99 34.6709 112.83 34.5096H112.67C112.51 34.5096 112.51 34.5096 112.51 34.6709V34.8322V35.4772H112.67Z" fill="#313030"/>
<path d="M90.5843 31.1231C90.1042 31.1231 89.9442 30.9618 89.6241 30.6393C89.1439 30.3168 88.5038 29.6718 87.3835 29.6718C86.2632 29.6718 85.623 30.1555 85.1429 30.6393C84.8228 30.9618 84.6627 31.1231 84.1826 31.1231C83.7025 31.1231 83.5424 30.9618 83.2224 30.6393C82.7422 30.3168 82.1021 29.6718 80.9818 29.6718C79.8615 29.6718 79.2213 30.1555 78.7412 30.6393C78.4211 30.9618 78.261 31.1231 77.7809 31.1231C77.3008 31.1231 77.1407 30.9618 76.8206 30.6393C76.3405 30.3168 75.7003 29.6718 74.58 29.6718C73.4597 29.6718 72.8196 30.1555 72.3394 30.6393C72.0193 30.9618 71.8593 31.1231 71.3792 31.1231C70.899 31.1231 70.739 30.9618 70.4189 30.6393C69.9388 30.3168 69.2986 29.6718 68.1783 29.6718C67.058 29.6718 66.4178 30.1555 65.9377 30.6393C65.6176 30.9618 65.4576 31.1231 64.9775 31.1231C64.4973 31.1231 64.3373 30.9618 64.0172 30.6393C63.5371 30.3168 62.8969 29.6718 61.7766 29.6718C60.6563 29.6718 60.0161 30.1555 59.536 30.6393C59.2159 30.9618 59.0559 31.1231 58.5757 31.1231C57.7755 31.1231 57.1353 30.4781 57.1353 29.6718C57.1353 27.7366 64.0172 22.2538 74.7401 22.2538C85.463 22.2538 92.3448 27.7366 92.3448 29.6718C92.3448 30.1555 92.8249 30.6393 93.3051 30.6393C93.7852 30.6393 94.2653 30.1555 94.2653 29.6718C94.2653 25.9628 85.463 20.3187 74.7401 20.3187C64.0172 20.3187 55.2148 25.9628 55.2148 29.6718C55.2148 31.6069 56.8153 33.2195 58.7358 33.2195C59.8561 33.2195 60.4962 32.7357 60.9764 32.2519C61.2965 31.9294 61.4565 31.7681 61.9366 31.7681C62.4168 31.7681 62.5768 31.9294 62.8969 32.2519C63.377 32.5744 64.0172 33.2195 65.1375 33.2195C66.2578 33.2195 66.898 32.7357 67.3781 32.2519C67.6982 31.9294 67.8582 31.7681 68.3384 31.7681C68.8185 31.7681 68.9785 31.9294 69.2986 32.2519C69.7787 32.5744 70.4189 33.2195 71.5392 33.2195C72.6595 33.2195 73.2997 32.7357 73.7798 32.2519C74.0999 31.9294 74.2599 31.7681 74.7401 31.7681C75.2202 31.7681 75.3802 31.9294 75.7003 32.2519C76.1805 32.5744 76.8206 33.2195 77.9409 33.2195C79.0612 33.2195 79.7014 32.7357 80.1815 32.2519C80.5016 31.9294 80.6617 31.7681 81.1418 31.7681C81.6219 31.7681 81.782 31.9294 82.1021 32.2519C82.5822 32.5744 83.2224 33.2195 84.3427 33.2195C85.463 33.2195 86.1031 32.7357 86.5833 32.2519C86.9033 31.9294 87.0634 31.7681 87.5435 31.7681C88.0236 31.7681 88.1837 31.9294 88.5038 32.2519C88.9839 32.5744 89.6241 33.2195 90.7444 33.2195C91.7046 33.2195 92.1848 33.7033 92.1848 33.8645C92.1848 34.0258 92.0247 34.0258 91.8647 34.187C91.5446 34.3483 91.0645 34.5096 90.7444 34.5096H58.4157C56.4952 34.5096 54.8947 36.1221 54.8947 38.0573V39.0248C54.8947 40.9599 56.4952 42.5725 58.4157 42.5725H90.5843C92.5048 42.5725 94.1053 40.9599 94.1053 39.0248C94.1053 38.541 93.6252 38.0573 93.145 38.0573C92.6649 38.0573 92.1848 38.541 92.1848 39.0248C92.1848 39.8311 91.5446 40.4762 90.7444 40.4762H58.4157C57.6155 40.4762 56.9753 39.8311 56.9753 39.0248V38.0573C56.9753 37.251 57.6155 36.6059 58.4157 36.6059H90.5843C91.3845 36.6059 92.1848 36.4447 92.8249 35.9609C93.4651 35.4771 93.9452 34.8321 93.9452 34.0258C93.9452 34.0258 93.9452 34.0258 93.9452 33.8645C93.9452 33.8645 93.9452 33.8645 93.9452 33.7033C93.9452 32.2519 92.5048 31.1231 90.5843 31.1231ZM65.6176 25.9628L64.8174 26.2853C64.6574 26.4466 64.4973 26.6078 64.4973 26.7691C64.4973 26.9303 64.4973 27.0916 64.4973 27.2529C64.6574 27.4141 64.6574 27.5754 64.9775 27.5754H65.1375C65.4576 27.5754 65.7777 27.4141 65.7777 27.0916L65.9377 26.2853C65.9377 26.124 65.9377 26.124 65.9377 25.9628C65.7777 25.9628 65.7777 25.9628 65.6176 25.9628ZM74.9001 25.9628L74.0999 26.2853C73.9399 26.4466 73.7798 26.6078 73.7798 26.7691C73.6198 27.0916 73.9399 27.5754 74.26 27.5754H74.42C74.7401 27.5754 75.0602 27.4141 75.0602 27.0916L75.2202 26.2853C75.2202 26.124 75.2202 26.124 75.2202 25.9628C75.0602 25.9628 75.0602 25.9628 74.9001 25.9628ZM84.1826 25.9628L83.3824 26.2853C83.2224 26.4466 83.0623 26.6078 83.0623 26.7691C82.9023 27.0916 83.2224 27.5754 83.5424 27.5754H83.7025C84.0226 27.5754 84.3427 27.4141 84.3427 27.0916L84.5027 26.2853C84.5027 26.124 84.5027 26.124 84.5027 25.9628C84.3427 25.9628 84.3427 25.9628 84.1826 25.9628ZM70.2589 24.6727L69.4587 24.9952C69.2986 24.9952 69.1386 25.3177 69.1386 25.479C68.9785 25.8015 69.2986 26.2853 69.6187 26.2853H69.7787C70.0988 26.2853 70.4189 26.124 70.4189 25.8015L70.579 24.9952C70.579 24.834 70.579 24.834 70.4189 24.6727C70.4189 24.6727 70.4189 24.6727 70.2589 24.6727ZM79.5414 24.6727L78.7412 24.9952C78.5811 25.1565 78.4211 25.3177 78.4211 25.479C78.4211 25.6403 78.4211 25.8015 78.4211 25.9628C78.5811 26.124 78.5811 26.2853 78.9012 26.2853H79.0612C79.3813 26.2853 79.7014 26.124 79.7014 25.8015L79.8615 24.9952C79.8615 24.834 79.8615 24.834 79.8615 24.6727C79.7014 24.6727 79.7014 24.6727 79.5414 24.6727Z" fill="#313030"/>
<path d="M78.7411 63.5364C78.7411 63.3751 78.5811 63.2139 78.421 63.2139L75.8604 63.0526L74.9001 60.6337C74.74 60.3112 74.2599 60.3112 74.0999 60.6337L73.1396 63.0526L70.5789 63.2139C70.4189 63.2139 70.2589 63.3751 70.2589 63.5364C70.2589 63.6976 70.2588 63.8589 70.4189 64.0202L72.4994 65.6328L71.8593 68.2129C71.8593 68.3742 71.8593 68.5354 72.0193 68.6967C72.1794 68.858 72.3394 68.858 72.4994 68.6967L74.7401 67.2454L76.9806 68.6967H77.1407C77.3007 68.6967 77.6208 68.5354 77.6208 68.2129V68.0517L76.9806 65.6328L79.0612 64.0202C78.7411 64.0202 78.9012 63.6976 78.7411 63.5364Z" fill="#313030"/>
<path d="M90.7444 64.9877H82.4221C82.2621 64.9877 81.942 64.8264 81.942 64.6652C81.942 64.5039 82.1021 64.1814 82.4221 64.1814H90.7444C90.9044 64.1814 91.2245 64.3427 91.2245 64.6652C91.2245 64.9877 91.0645 64.9877 90.7444 64.9877Z" fill="#313030"/>
<path d="M89.464 67.0841H81.1418C80.9818 67.0841 80.6617 66.9228 80.6617 66.6003C80.6617 66.439 80.8217 66.1165 81.1418 66.1165H89.464C89.6241 66.1165 89.9442 66.2778 89.9442 66.6003C89.7841 66.9228 89.6241 67.0841 89.464 67.0841Z" fill="#313030"/>
<path d="M66.5779 64.9877H58.2556C58.0956 64.9877 57.7755 64.8264 57.7755 64.6652C57.7755 64.5039 57.9356 64.1814 58.2556 64.1814H66.5779C66.7379 64.1814 67.058 64.3427 67.058 64.6652C67.058 64.9877 66.7379 64.9877 66.5779 64.9877Z" fill="#313030"/>
<path d="M67.8582 67.0841H59.536C59.376 67.0841 59.0559 66.9228 59.0559 66.6003C59.0559 66.439 59.2159 66.1165 59.536 66.1165H67.8582C68.0183 66.1165 68.3384 66.2778 68.3384 66.6003C68.3384 66.9228 68.1783 67.0841 67.8582 67.0841Z" fill="#313030"/>
</svg>
