<svg width="151" height="32" viewBox="0 0 151 32" fill="none" xmlns="http://www.w3.org/2000/svg">
<path fill-rule="evenodd" clip-rule="evenodd" d="M62.186 0.0803819C62.0236 0.0401909 61.8613 0 61.6989 0H60.7247H60.5623C60.0752 0.160764 59.5881 0.321527 59.101 0.643055C56.9903 1.7684 56.5032 4.17986 57.9645 6.10902C58.4516 6.75208 58.9387 7.23437 59.5881 7.71666C59.994 8.03819 60.4406 8.35972 60.8871 8.68124C61.3336 9.00277 61.7801 9.3243 62.186 9.64582C62.9978 10.2889 63.6473 11.0927 63.972 12.218C64.2967 13.6649 63.8096 14.951 62.3484 15.5941C61.0494 16.0764 59.9129 16.0764 58.6139 15.4333C57.9645 15.1118 57.4774 14.6295 57.1527 13.9864C57.0648 13.8124 57.0244 13.5912 56.9802 13.3484C56.9427 13.1427 56.9024 12.9215 56.8279 12.7003C56.8279 12.3788 56.8279 12.218 56.9903 12.218L57.1527 12.3788C57.6397 13.1826 58.9387 13.5042 59.7505 12.8611C60.5623 12.3788 60.8871 10.9319 60.2376 10.1281C59.101 8.52048 56.5032 8.842 55.6914 10.4496C55.2043 11.2535 55.2043 12.218 55.529 13.0219C55.8537 14.951 56.9903 16.2371 58.7763 16.8802C60.7247 17.684 62.6731 17.3625 64.6215 16.3979C66.7322 15.2726 67.7064 13.1826 67.544 10.7712C67.3817 9.3243 66.5699 8.03819 65.758 7.23437C65.3468 6.82716 64.8704 6.48441 64.3701 6.12449C64.0804 5.91603 63.7826 5.70181 63.4849 5.46597L61.5365 4.01909C61.2118 3.69757 60.8871 3.21527 60.7247 2.73298C60.5623 1.7684 61.0494 1.28611 61.8613 1.28611C62.6731 1.44687 63.3225 1.7684 63.8096 2.25069C64.2967 2.73298 64.6215 3.21527 64.7838 3.69757C64.8194 3.73281 64.8472 3.76805 64.8723 3.79991C64.9618 3.91336 65.0174 3.98385 65.2709 3.85833C65.3521 3.77795 65.4739 3.73776 65.5957 3.69757C65.7174 3.65738 65.8392 3.61718 65.9204 3.5368C66.0828 3.5368 66.0828 3.37604 66.0828 3.21527C65.9204 2.73299 65.7986 2.25071 65.6768 1.76844C65.5551 1.28613 65.4333 0.80383 65.2709 0.321527C65.2709 0.160764 64.9462 0 64.7838 0.160764L64.4591 0.482291C64.1344 0.803819 63.972 0.803819 63.8096 0.643055C63.6473 0.562673 63.4443 0.482291 63.2414 0.401909C63.0384 0.321527 62.8354 0.241146 62.6731 0.160764C62.5107 0.160764 62.3483 0.120573 62.186 0.0803819ZM66.0828 10.9319C66.0828 11.575 66.0828 12.218 65.758 12.7003C65.5957 11.575 65.2709 10.6104 64.6215 9.80659C64.3779 9.56544 64.1344 9.36449 63.8908 9.16353L63.8908 9.16348C63.6472 8.96255 63.4037 8.7616 63.1602 8.52048C62.6731 8.11857 62.186 7.75685 61.6989 7.39513L61.6988 7.39504C61.2117 7.03335 60.7246 6.67166 60.2376 6.26979C59.7505 5.78749 59.2634 5.3052 58.9387 4.82291C58.6139 4.17986 58.4516 3.5368 58.9387 2.73298V3.05451C59.101 3.85833 59.5881 4.34062 60.0752 4.82291C60.8871 5.3052 61.6989 5.94826 62.5107 6.59131C63.4849 7.23437 64.2967 7.87742 64.9462 8.68124C65.5957 9.3243 65.9204 9.96735 66.0828 10.9319ZM151 10.4496V9.48506V7.55589C151 7.0736 151 6.75208 150.838 6.43055C150.513 4.50138 149.863 3.05451 148.402 1.7684C147.266 0.964582 146.129 0.321527 144.668 0.160764C144.181 0 143.856 0 143.531 0H142.719C142.395 0 142.07 0 141.745 0.160764C138.823 0.643055 136.874 2.25069 135.9 4.98368C135.413 6.26979 135.413 7.5559 135.413 9.00277C135.413 10.2889 135.575 11.4142 136.062 12.5396C136.874 14.6295 138.335 16.2371 140.609 16.8802C142.232 17.3625 143.856 17.3625 145.48 17.041C146.778 16.7194 148.077 16.0764 149.052 14.951C150.188 13.6649 150.675 12.218 151 10.4496ZM139.634 11.4142C139.634 10.4496 139.634 9.64582 139.472 8.68124C139.551 8.05847 139.591 7.4357 139.631 6.83119L139.631 6.83049L139.631 6.83005L139.631 6.8296L139.631 6.82912L139.631 6.82862L139.631 6.82811L139.631 6.82758C139.673 6.18496 139.713 5.56301 139.797 4.98368C139.959 4.34062 140.121 3.69757 140.446 3.21527C141.096 1.92916 142.07 1.44687 143.369 1.44687C144.505 1.60764 145.48 2.08993 145.967 3.05451C146.291 3.69757 146.454 4.50138 146.616 5.3052C146.778 7.39513 146.778 9.3243 146.616 11.4142C146.616 12.218 146.291 13.1826 145.967 13.9864C145.48 14.951 144.83 15.5941 143.694 15.7548C142.07 16.0764 140.933 15.4333 140.284 13.8257L140.284 13.8256C139.959 13.0218 139.634 12.218 139.634 11.4142ZM148.889 12.3788C148.564 13.1826 148.077 13.8257 147.428 14.4687C147.59 13.8257 147.753 13.1826 147.753 12.8611C148.077 11.4142 148.24 10.1281 148.24 8.68124C148.077 6.75208 147.915 5.14444 147.266 3.37604C147.266 3.29566 147.225 3.21527 147.184 3.13489C147.144 3.05451 147.103 2.97413 147.103 2.89375C147.103 2.81337 147.063 2.73298 147.022 2.6526L147.022 2.65251C146.981 2.57216 146.941 2.49181 146.941 2.41146C147.022 2.41146 147.063 2.45165 147.103 2.49184C147.144 2.53203 147.184 2.57222 147.266 2.57222C147.915 3.05451 148.402 3.69757 148.727 4.50138C149.376 6.10902 149.701 7.71666 149.539 9.48506C149.539 10.4496 149.376 11.4142 148.889 12.3788ZM138.011 8.52048C138.011 10.6104 138.173 12.7003 139.147 14.7903C138.498 14.1472 138.011 13.6649 137.686 13.0219C137.199 12.0573 137.037 10.9319 136.874 9.80659C136.712 8.68124 136.712 7.71666 136.874 6.75208C137.199 5.3052 137.686 3.85833 138.823 2.73298L139.147 2.41146C139.147 2.25069 139.31 2.25069 139.31 2.25069C138.335 4.34062 138.011 6.43055 138.011 8.52048ZM-3.05176e-05 0.482277C0.162335 0.321513 0.324701 0.321513 0.487066 0.321513H6.49459C6.81932 0.321513 6.98169 0.482277 6.98169 0.803805V1.44686C6.98169 1.60762 6.98169 1.60762 6.65696 1.60762H6.0075C5.84513 1.60762 5.68277 1.76839 5.68277 1.92915V2.08991V14.951V15.1118C5.68277 15.2725 5.84513 15.4333 6.0075 15.4333H6.65696C6.98169 15.4333 6.98169 15.5941 6.98169 15.7548V16.3979C6.98169 16.7194 6.81932 16.8802 6.49459 16.8802H1.13653H0.487066C0.324701 16.8802 0.162335 16.8802 -3.05176e-05 16.7194V15.9156C0.162335 15.7548 0.324701 15.7548 0.649432 15.7548H0.974163C1.46126 15.7548 1.62363 15.7548 1.62363 15.1118V12.218V2.08991C1.46126 1.76839 1.29889 1.60762 0.974163 1.60762H0.487066C0.324701 1.76839 0.162335 1.60762 -3.05176e-05 1.44686V0.482277ZM2.92255 15.5941H4.22148V1.76839H2.92255V15.5941ZM64.1343 31.0273L64.1344 31.0274V31.1882H64.4592C64.6215 31.0274 64.6215 31.0274 64.6215 30.8667V29.0983V24.7576C64.6215 24.5974 64.6215 24.517 64.5813 24.4767C64.5409 24.4361 64.4597 24.4361 64.2968 24.4361H63.6473C63.4844 24.4361 63.4033 24.4361 63.3628 24.4767C63.3226 24.517 63.3226 24.5974 63.3226 24.7576V28.2944V28.4552L63.1602 28.2944L62.7714 27.8608L62.7712 27.8607C61.63 26.5877 60.5935 25.4315 59.4258 24.2753C59.2635 24.1146 59.1011 24.1146 58.9387 24.1146C58.7764 24.1146 58.7764 24.2753 58.7764 24.4361V28.1337V30.5451C58.7764 30.8667 58.9387 30.8667 59.1011 30.8667H59.7506C60.0753 30.8667 60.0753 30.8667 60.0753 30.5451V27.0083V26.6868C61.5366 28.1336 62.8354 29.5805 64.1343 31.0273ZM108.135 31.0274C107.811 30.5451 107.486 30.2236 106.999 29.7413C106.148 28.8992 105.422 28.0572 104.603 27.1081L104.603 27.108L104.348 26.8131L104.239 26.6868C104.239 26.6868 104.239 26.526 104.076 26.526V26.6868V30.5451C104.076 30.7054 104.076 30.7857 104.036 30.8261C103.996 30.8667 103.914 30.8667 103.752 30.8667H103.102C102.94 30.8667 102.777 30.8667 102.777 30.5451V28.1337V24.4361C102.777 24.2753 102.777 24.1146 102.94 24.1146C103.102 24.1146 103.264 24.1146 103.427 24.2753C104.076 24.9183 104.685 25.5612 105.294 26.2041L105.294 26.2045C105.903 26.8476 106.512 27.4906 107.161 28.1337L107.324 28.2944V27.9729V24.4361C107.324 24.1146 107.324 24.1146 107.648 24.1146H108.298C108.46 24.1146 108.623 24.1146 108.623 24.4361V30.5451V30.8667H108.135V31.0274ZM44.2446 30.947C44.3258 30.9872 44.4069 31.0274 44.4881 31.0274V30.8667H45.1376C45.4623 30.8667 45.787 30.7059 46.1118 30.5451C46.9236 29.9021 47.4107 29.0983 47.4107 28.1337V25.0792V24.4361C47.4107 24.2759 47.4107 24.1955 47.3705 24.1552C47.3301 24.1146 47.2489 24.1146 47.086 24.1146H46.4365C46.2736 24.1146 46.1924 24.1146 46.152 24.1552C46.1118 24.1955 46.1118 24.2759 46.1118 24.4361V28.2944C46.1118 28.9375 45.787 29.4198 45.3 29.5805C44.8129 29.7413 44.1634 29.7413 43.8387 29.259C43.6763 28.9375 43.5139 28.616 43.5139 28.1337V24.4361C43.5139 24.2759 43.5139 24.1955 43.4737 24.1552C43.4333 24.1146 43.3521 24.1146 43.1892 24.1146H42.5397C42.215 24.1146 42.215 24.2753 42.215 24.4361V28.2944C42.215 29.4198 43.0268 30.5451 44.001 30.8667C44.0822 30.8667 44.1634 30.9068 44.2446 30.947ZM51.7946 31.0274C51.6322 31.0274 51.5105 30.9872 51.3887 30.947C51.2669 30.9068 51.1451 30.8666 50.9828 30.8666C49.5215 30.3843 48.5473 28.7767 48.7097 27.1691C48.872 25.7222 50.1709 24.4361 51.6322 24.2753C52.6064 24.1145 53.5806 24.4361 54.3925 25.0791C54.5548 25.2399 54.5548 25.4007 54.3925 25.5614L53.9054 26.0437C53.743 26.2045 53.5806 26.2045 53.4183 26.0437C52.7688 25.5614 51.957 25.4007 51.1451 25.7222C50.1709 26.2045 49.8462 27.3298 50.0086 28.2944C50.3333 29.259 51.1451 29.902 52.2817 29.902C52.7688 29.902 53.0935 29.7413 53.4183 29.4197C53.5806 29.259 53.743 29.259 53.9054 29.4197L54.3925 29.902C54.4736 29.9824 54.5142 30.0226 54.5142 30.0628C54.5142 30.103 54.4736 30.1432 54.3925 30.2236C53.9054 30.7059 53.4183 30.8666 52.7688 31.0274H52.6064H51.7946ZM37.7499 30.8666C37.9529 30.9068 38.1558 30.947 38.3182 31.0274V31.1882H39.4548H39.6171C40.2666 31.0274 40.7537 30.8666 41.2408 30.3843C41.4032 30.2236 41.4032 30.0628 41.2408 29.902L40.7537 29.4198C40.5913 29.259 40.429 29.259 40.2666 29.4198C39.7795 29.902 39.2924 30.0628 38.6429 29.902C37.8311 29.7413 37.0193 29.0982 36.8569 28.2944C36.6946 27.3298 37.0193 26.3652 37.6688 25.8829C38.4806 25.4007 39.4548 25.4007 40.2666 26.0437C40.429 26.2045 40.429 26.2045 40.5913 26.0437L41.0784 25.5614C41.1732 25.3737 41.2127 25.2956 41.1968 25.2311C41.1855 25.1851 41.146 25.146 41.0784 25.0791C40.2666 24.4361 39.2924 24.1145 38.3182 24.2753C36.8569 24.4361 35.7204 25.7222 35.3956 27.1691C35.0709 28.6159 35.8827 30.0628 37.1817 30.7059C37.344 30.7862 37.547 30.8264 37.7499 30.8666ZM48.3849 12.8611H45.2999H44.1634C44.001 12.8611 44.001 12.8611 44.001 13.0218C43.9198 13.4237 43.8386 13.7854 43.7575 14.1471L43.7575 14.1472C43.6763 14.5089 43.5951 14.8706 43.5139 15.2725C43.5139 15.5941 43.5139 15.7548 43.8386 15.7548H44.4881C44.8128 15.7548 44.8128 15.9156 44.8128 16.2371V16.8802C44.8128 17.0409 44.6505 17.2017 44.4881 17.2017H40.9161C40.7537 17.2017 40.5913 17.0409 40.5913 16.8802V16.0764C40.5913 15.9156 40.7537 15.7548 40.9161 15.7548H41.5655C42.0526 15.7548 42.0526 15.7548 42.0526 15.2725C42.215 14.4687 42.4179 13.6247 42.6209 12.7807C42.8239 11.9367 43.0268 11.0927 43.1892 10.2889C43.5138 8.9229 43.8384 7.5971 44.163 6.27131L44.1634 6.26977C44.4881 4.94347 44.8128 3.61717 45.1376 2.25068C45.1376 1.92915 45.1376 1.76839 44.8128 1.76839C44.3257 1.76839 44.3257 1.60762 44.3257 1.12533V0.803805C44.3257 0.482277 44.4881 0.321513 44.8128 0.321513H46.1118H49.6838C50.0085 0.321513 50.1709 0.482277 50.1709 0.643041C50.2976 1.19523 50.4244 1.74349 50.5505 2.28906L50.5518 2.29457L50.5524 2.29725L50.5527 2.29859C51.2337 5.24411 51.8965 8.11128 52.444 11.0927C52.7687 12.5396 53.0935 13.9864 53.4182 15.2725C53.4182 15.5941 53.5806 15.5941 53.9053 15.5941H54.3924C54.7171 15.5941 54.7171 15.7548 54.7171 16.0764V16.7194C54.7171 17.0409 54.5548 17.2017 54.3924 17.2017H53.2558H48.2225C47.8978 17.2017 47.7354 17.2017 47.7354 16.7194V16.0764C47.7354 15.7548 47.8978 15.7548 48.0601 15.7548H48.7096C49.0343 15.7548 49.0343 15.5941 49.0343 15.4333C48.943 14.8904 48.8001 14.3984 48.6638 13.9287L48.6638 13.9287C48.5579 13.5639 48.4559 13.2125 48.3849 12.8611ZM47.573 1.76839C48.5472 6.43054 49.5214 11.0927 50.4956 15.5941H51.9569C51.4079 12.9667 50.8073 10.3394 50.2133 7.74088L50.2133 7.74059L50.2131 7.73993L50.213 7.73947L50.2129 7.7391L50.2129 7.73884L50.2128 7.73866L50.2128 7.73846L50.2127 7.73788L50.2126 7.73751L50.2125 7.73724C49.7527 5.72593 49.2969 3.73186 48.872 1.76839H47.573ZM46.4365 3.53679C45.787 6.10901 45.1376 8.84199 44.4881 11.575H48.2225C47.573 8.84199 46.9236 6.10901 46.4365 3.53679ZM34.7462 12.0573V11.7357C35.558 11.7357 36.2075 11.575 36.6946 11.4142C37.8311 11.2534 38.8053 10.7712 39.6171 9.96734C40.7537 8.84199 41.2408 7.55588 41.2408 6.10901C41.2408 3.85832 40.2666 2.08991 38.1559 1.12533C37.0193 0.643041 35.7204 0.321513 34.4215 0.321513H29.3881C29.2257 0.321513 29.0634 0.482277 29.0634 0.643041V1.2861C29.0634 1.52147 29.1504 1.58454 29.2607 1.66451C29.3011 1.69378 29.3446 1.72531 29.3881 1.76839H30.0376C30.3623 1.76839 30.5247 1.92915 30.5247 2.25068V7.39512V14.951C30.5247 15.2725 30.3623 15.4333 30.0376 15.4333H29.5505C29.3881 15.4333 29.2257 15.5941 29.2257 15.9156V16.5587C29.2257 16.7194 29.2257 16.8802 29.5505 16.8802H35.8827C36.0451 16.8802 36.2075 16.7194 36.2075 16.5587V15.9156C36.2075 15.7548 36.2075 15.5941 35.8827 15.5941H35.2333C34.9085 15.5941 34.7462 15.4333 34.7462 15.1118V12.0573ZM34.7462 10.4496V1.76839C35.3956 1.76839 35.8827 1.76839 36.3698 2.08991C37.5064 2.41144 38.3182 2.89373 39.1301 3.69755C39.7795 4.50137 39.9419 5.46595 39.9419 6.43054C39.9419 6.91283 39.7795 7.55588 39.6171 8.03817C39.2924 8.84199 38.8053 9.32428 37.9935 9.80657C37.0193 10.2889 35.8827 10.4496 34.7462 10.4496ZM31.986 1.76839H33.2849V15.5941H31.986V1.76839ZM117.228 9.80659C117.228 10.2889 117.269 10.8114 117.309 11.3338L117.309 11.3342C117.35 11.8565 117.39 12.3789 117.39 12.8611C117.39 13.3434 117.553 13.9865 117.877 14.4687C118.364 15.2726 119.014 15.7549 119.826 15.9156C120.8 16.0764 121.612 15.9156 122.424 15.4333C122.911 15.1118 123.235 14.6296 123.56 14.1473L123.56 14.1472C123.723 13.8257 123.723 13.5042 123.398 13.3434C123.398 13.3434 123.235 13.1826 123.073 13.1826C122.261 12.8611 121.937 12.0573 122.099 11.2535C122.261 10.4496 123.073 9.96736 123.885 9.96736C124.697 9.96736 125.346 10.6104 125.509 11.4142C125.671 12.0573 125.509 12.8611 125.346 13.5042C125.184 14.4687 124.697 15.2726 124.047 16.0764C123.235 16.8802 122.424 17.2017 121.449 17.3625C119.501 17.5233 117.877 17.041 116.254 15.9156C115.117 14.951 114.305 13.6649 113.818 12.218C113.006 9.48507 113.006 6.91285 114.143 4.34063C114.955 2.2507 116.578 0.964587 118.689 0.321532C120.151 4.40544e-06 121.612 0.160768 122.911 0.643059C123.235 0.803823 123.398 0.803823 123.56 0.482296L123.885 0.160768C124.047 4.39946e-06 124.21 0.160768 124.372 0.321532C124.534 1.28611 124.697 2.2507 125.021 3.21528C125.021 3.37604 125.021 3.53681 124.697 3.69757C124.616 3.69757 124.494 3.73776 124.372 3.77795C124.25 3.81814 124.128 3.85833 124.047 3.85833C123.885 3.85833 123.723 3.85833 123.56 3.69757C123.56 3.50922 123.504 3.37604 123.458 3.26571C123.426 3.1877 123.398 3.12111 123.398 3.05452C122.911 1.92917 121.937 1.44688 120.8 1.44688C119.826 1.44688 119.176 1.92917 118.689 2.57222C118.04 3.37604 117.877 4.34063 117.715 5.30521C117.634 5.78741 117.593 6.26961 117.553 6.75181L117.553 6.75208C117.512 7.23437 117.471 7.71666 117.39 8.19896C117.39 8.84201 117.39 9.3243 117.228 9.80659ZM117.066 2.2507L116.903 2.41146C115.604 3.69757 114.955 5.30521 114.792 7.07361C114.63 8.35972 114.63 9.48507 114.955 10.7712C114.955 11.8965 115.28 12.8611 115.929 13.8257C116.01 13.9864 116.091 14.1069 116.172 14.2275L116.173 14.2276L116.173 14.2277C116.254 14.3482 116.335 14.4688 116.416 14.6295C115.442 10.4496 115.604 6.26979 117.066 2.2507ZM97.744 7.07359H96.7698L96.6075 2.08991C96.6075 1.92915 96.7698 1.76839 96.9322 1.76839H97.4193H100.667C100.991 1.76839 101.154 1.92915 101.154 2.25068V2.73297C101.154 3.0545 101.316 3.21526 101.641 3.21526H102.29C102.615 3.21526 102.777 3.0545 102.777 2.73297V0.803805C102.777 0.482277 102.615 0.321513 102.29 0.321513H100.18H91.7365C91.4118 0.321513 91.2494 0.321513 91.2494 0.643041V1.2861C91.2494 1.44686 91.4118 1.60762 91.5741 1.60762H92.0612C92.5483 1.60762 92.5483 1.76839 92.5483 2.08991V15.4333V15.5941C92.5483 15.7548 92.386 15.9156 92.2236 15.9156H91.7365C91.4118 15.9156 91.2494 16.0764 91.2494 16.3979V17.0409C91.2494 17.2017 91.2494 17.3625 91.5741 17.3625H97.9064C98.0688 17.3625 98.2311 17.2017 98.2311 16.8802V16.2371C98.2311 15.9156 98.0688 15.7548 97.744 15.7548H97.0946C96.7698 15.7548 96.6075 15.5941 96.6075 15.2725V8.84199V8.52046H96.9322H99.3677C99.6924 8.52046 99.8548 8.3597 99.8548 8.03817V7.55588C99.8548 7.23435 99.6924 7.07359 99.3677 7.07359H97.744ZM94.0096 1.76839H95.3085V15.5941H94.0096V1.76839ZM76.4742 1.60764V1.7684V14.951C76.4742 15.4333 76.6365 15.4333 76.9613 15.4333H77.4484C77.7731 15.4333 77.9355 15.5941 77.9355 15.9156V16.3979C77.9355 16.7194 77.7731 16.8802 77.4484 16.8802H75.3376H71.2785C70.9537 16.8802 70.7914 16.7194 70.7914 16.3979V15.9156C70.7914 15.5941 70.9537 15.4333 71.2785 15.4333H71.9279C72.2527 15.4333 72.2527 15.2726 72.2527 15.1118V14.951V1.92916V1.7684H72.0903H69.9795C69.6548 1.7684 69.4924 1.92916 69.4924 2.25069V2.73298C69.4924 3.05451 69.3301 3.05451 69.1677 3.05451H68.5183C68.1935 3.05451 68.0312 2.89375 68.0312 2.57222V0.482291C68.0312 0.160764 68.1935 0 68.5183 0H80.5333C80.858 0 81.0204 0.160764 81.0204 0.482291V2.41146C81.0204 2.73298 80.858 2.89375 80.5333 2.89375H79.8838C79.5591 2.89375 79.3968 2.73298 79.3968 2.41146V1.7684C79.3968 1.60764 79.2344 1.44687 79.072 1.44687C78.2602 1.60764 77.4484 1.60764 76.4742 1.60764ZM73.714 15.5941H75.0129V1.7684H73.714V15.5941ZM10.229 2.25068V8.68123H10.0667V15.1118C10.0667 15.4333 9.90431 15.5941 9.57958 15.5941H9.09249C9.04898 15.6371 9.00547 15.6687 8.96509 15.698C8.85477 15.7779 8.76775 15.841 8.76775 16.0764V16.5587C8.76775 16.8802 8.93012 17.0409 9.25485 17.0409H16.0742H19.8086C19.971 17.0409 20.1333 17.0409 20.1333 16.7194V14.6295C20.1333 14.4687 19.971 14.308 19.8086 14.308H19.1592C18.9968 14.308 18.8344 14.4687 18.8344 14.6295V15.2725C18.8344 15.5941 18.6721 15.7548 18.3473 15.7548H14.9376C14.6129 15.7548 14.4505 15.5941 14.4505 15.2725V10.7712V2.08991C14.4505 1.76839 14.6129 1.60762 14.9376 1.60762H15.4247C15.7495 1.60762 15.7495 1.60762 15.9118 1.44686V0.803805C15.9118 0.482277 15.7495 0.321513 15.4247 0.321513H9.90431H9.09249C8.93012 0.321513 8.76775 0.482277 8.76775 0.643041V1.2861C8.76775 1.60762 8.93012 1.60762 9.09249 1.60762H9.74195C10.0667 1.60762 10.229 1.76839 10.229 2.25068ZM12.9893 15.5941H11.6903V1.76839H12.9893V15.5941ZM88.1645 8.68123V15.2725C88.1645 15.5941 88.3269 15.7548 88.6516 15.7548H89.1387C89.4635 15.7548 89.4634 15.9156 89.4634 16.0764V16.7194C89.4634 17.0409 89.3011 17.0409 89.1387 17.0409H82.8065C82.4817 17.0409 82.4817 16.8802 82.4817 16.7194V16.0764C82.4817 15.7548 82.6441 15.5941 82.9688 15.5941H83.4559C83.7807 15.5941 83.943 15.4333 83.943 15.1118V2.73297V2.08991C83.943 1.76839 83.7807 1.60762 83.4559 1.60762H82.8065C82.4817 1.60762 82.3194 1.44686 82.3194 1.2861V0.643041C82.3194 0.482277 82.4817 0.321513 82.6441 0.321513H88.9764C89.1387 0.321513 89.3011 0.482277 89.3011 0.643041V1.44686C89.6258 1.60762 89.4635 1.60762 89.1387 1.60762H88.4893C88.1645 1.60762 88.1645 1.76839 88.1645 1.92915V8.68123ZM86.7032 1.76839H85.4043V15.5941H86.7032V1.76839ZM110.084 15.1118V8.68123V2.08991C110.084 1.76839 110.084 1.60762 110.571 1.60762H111.058C111.383 1.60762 111.545 1.60762 111.545 1.44686V0.643041C111.545 0.482277 111.383 0.321513 111.22 0.321513H104.888C104.726 0.321513 104.563 0.482277 104.563 0.643041V1.2861C104.563 1.44686 104.726 1.60762 104.888 1.60762H105.538C105.862 1.60762 106.025 1.76839 106.025 2.08991V15.1118C106.025 15.4333 105.862 15.5941 105.538 15.5941H104.888C104.563 15.5941 104.401 15.7548 104.401 16.0764V16.5587C104.401 16.8802 104.563 17.0409 104.888 17.0409H111.058H111.22C111.383 17.0409 111.545 16.8802 111.545 16.7194V15.9156C111.545 15.7548 111.383 15.5941 111.22 15.5941H110.571C110.246 15.5941 110.084 15.5941 110.084 15.1118ZM107.324 1.76839H108.623V15.5941H107.324V1.76839ZM133.14 8.68123V15.1118C133.14 15.3521 133.14 15.4727 133.2 15.5332C133.261 15.5941 133.383 15.5941 133.627 15.5941H134.276C134.439 15.5941 134.601 15.7548 134.601 15.9156V16.7194C134.601 16.8802 134.439 17.0409 134.276 17.0409H134.114H127.944C127.619 17.0409 127.457 16.8802 127.457 16.5587V16.0764C127.457 15.7548 127.619 15.5941 127.782 15.5941H128.431C128.756 15.5941 128.918 15.4333 128.918 15.1118V2.08991C128.918 1.76839 128.756 1.60762 128.594 1.60762H127.944C127.782 1.60762 127.619 1.44686 127.619 1.2861V0.643041C127.619 0.482277 127.782 0.321513 127.944 0.321513H134.276C134.439 0.321513 134.601 0.482277 134.601 0.643041V1.44686C134.439 1.60762 134.276 1.60762 134.114 1.60762H133.465C133.14 1.60762 133.14 1.76839 133.14 2.08991V8.68123ZM130.38 15.5941H131.679V1.76839H130.38V15.5941ZM1.13655 26.6868V27.9729H29.2258V27.0083C29.2258 26.6868 29.2258 26.6868 28.9011 26.6868H1.29891H1.13655ZM149.863 26.8476H121.774V27.9729H149.863V26.8476ZM100.504 30.3844C100.667 30.7059 100.829 31.0274 101.316 30.8667V30.7059H101.966C102.128 30.7059 102.29 30.7059 102.128 30.3844C101.154 28.4552 100.18 26.3653 99.2054 24.2753C99.1242 24.2753 99.0836 24.2352 99.043 24.195C99.0024 24.1548 98.9618 24.1146 98.8807 24.1146C98.7183 24.1146 98.5559 24.1146 98.5559 24.2753C98.0689 25.4006 97.5818 26.3651 97.0947 27.3296L97.0946 27.3299C96.8511 27.8925 96.6075 28.415 96.364 28.9375C96.1204 29.46 95.8769 29.9825 95.6333 30.5451C95.471 30.7059 95.471 30.8667 95.7957 30.8667H96.4452C96.6075 30.8667 96.7699 30.8667 96.7699 30.7059C96.7699 30.4705 96.8569 30.3213 96.9672 30.1321C97.0076 30.0628 97.0511 29.9882 97.0946 29.9021C97.1878 29.8098 97.2275 29.7705 97.2752 29.7537C97.3105 29.7413 97.3502 29.7413 97.4194 29.7413H99.5301C100.017 29.7413 100.18 29.7413 100.342 30.2236C100.504 30.2236 100.504 30.3844 100.504 30.3844ZM98.2312 27.571C98.3935 27.2093 98.5559 26.8476 98.7183 26.526C99.043 27.1691 99.3677 27.8121 99.6925 28.616H97.7441C97.9064 28.2944 98.0688 27.9327 98.2312 27.571ZM115.117 30.8666C114.63 31.0274 114.468 30.7059 114.305 30.3843C114.305 30.2236 114.143 29.902 113.981 29.7413C113.876 29.6375 113.703 29.6677 113.507 29.7022C113.399 29.7211 113.284 29.7413 113.169 29.7413H111.22C111.139 29.7413 111.098 29.7413 111.078 29.7616C111.058 29.7817 111.058 29.8219 111.058 29.902C111.015 29.9879 110.971 30.0623 110.931 30.1314L110.931 30.1317L110.931 30.1319L110.931 30.1321C110.82 30.3213 110.733 30.4705 110.733 30.7059C110.733 30.8666 110.571 31.0274 110.409 31.0274H109.759C109.434 31.0274 109.434 30.8666 109.597 30.7059C109.921 29.902 110.246 29.259 110.733 28.4552C111.058 27.8123 111.342 27.1693 111.626 26.5264L111.626 26.526C111.91 25.883 112.195 25.2399 112.519 24.5968C112.519 24.4975 112.581 24.4595 112.667 24.4071C112.72 24.3747 112.782 24.3367 112.844 24.2753C112.925 24.2753 112.966 24.3155 113.006 24.3557C113.047 24.3959 113.088 24.4361 113.169 24.4361C114.143 26.526 115.117 28.6159 116.091 30.5451C116.254 30.8666 116.091 30.8666 115.929 30.8666H115.117ZM112.519 26.526C112.195 27.3297 111.87 27.9727 111.545 28.6157L111.545 28.6159H113.493C113.169 27.8121 112.844 27.169 112.519 26.526ZM70.3043 30.3843C70.4667 30.7059 70.6291 31.0274 71.1161 30.8666H72.0903C72.2527 30.8666 72.4151 30.8666 72.2527 30.5451C71.2786 28.6161 70.3045 26.5264 69.3304 24.4367L69.3301 24.4361C69.2489 24.4361 69.2084 24.3959 69.1678 24.3557C69.1272 24.3155 69.0866 24.2753 69.0054 24.2753C68.843 24.2753 68.6807 24.2753 68.6807 24.4361C68.4371 24.838 68.2342 25.2801 68.0312 25.7221C67.8283 26.1643 67.6253 26.6064 67.3817 27.0083C67.1382 27.571 66.8541 28.1738 66.5699 28.7767C66.2858 29.3795 66.0016 29.9824 65.7581 30.5451C65.5957 30.7059 65.5957 30.8666 65.9204 30.8666H66.5699C66.7323 30.8666 66.8946 30.8666 66.8946 30.7059C66.8946 30.4705 66.9817 30.3213 67.092 30.1321C67.1324 30.0628 67.1759 29.9882 67.2194 29.902C67.2194 29.8219 67.2194 29.7817 67.2395 29.7616C67.2597 29.7413 67.3003 29.7413 67.3817 29.7413H69.6549C69.9796 29.7413 70.142 29.7413 70.142 30.0628C70.142 30.0628 70.3043 30.2236 70.3043 30.3843ZM68.0312 27.571C68.1936 27.2092 68.3559 26.8475 68.5183 26.526C68.843 27.169 69.1678 27.8121 69.4925 28.6159H67.5441C67.7065 28.2944 67.8688 27.9327 68.0312 27.571ZM84.5925 29.5805H83.2935C83.2935 29.5805 83.1312 29.5805 83.1312 29.7413L83.1311 29.7414C82.9688 30.0629 82.8064 30.3844 82.6441 30.5451C82.6441 30.7059 82.4817 30.7059 82.3193 30.7059H81.6699C81.3451 30.7059 81.3451 30.5451 81.5075 30.3844C81.8322 29.7413 82.1164 29.1384 82.4005 28.5356C82.6847 27.9327 82.9688 27.3299 83.2935 26.6868C83.4559 26.2849 83.6589 25.883 83.8618 25.481L83.8619 25.4808C84.0648 25.079 84.2678 24.6772 84.4301 24.2753C84.4301 24.1146 84.5925 24.1146 84.7548 24.1146C84.836 24.1146 84.8766 24.1548 84.9172 24.195C84.9578 24.2352 84.9984 24.2753 85.0796 24.2753L85.0798 24.2759C86.0539 26.3657 87.028 28.4554 88.0021 30.3844C88.1645 30.7059 88.0021 30.7059 87.8398 30.7059H87.1903C87.0279 30.7059 86.8656 30.7059 86.8656 30.5451C86.8221 30.4591 86.7787 30.3846 86.7384 30.3155L86.7383 30.3153L86.7382 30.3151C86.6278 30.1259 86.5408 29.9767 86.5408 29.7413C86.5408 29.5805 86.3785 29.5805 86.3785 29.5805H84.5925ZM84.5925 26.526C84.4301 26.8476 84.2677 27.2093 84.1054 27.571C83.943 27.9327 83.7806 28.2944 83.6183 28.616H85.5667C85.242 27.8122 84.9173 27.1692 84.5926 26.5262L84.5925 26.526ZM77.4484 25.4006H78.4226V25.5614V30.5451C78.4226 30.7053 78.4226 30.7857 78.4628 30.826C78.5033 30.8666 78.5844 30.8666 78.7473 30.8666H79.3968C79.5597 30.8666 79.6409 30.8666 79.6813 30.826C79.7215 30.7857 79.7215 30.7053 79.7215 30.5451V25.7222V25.4006H81.1828C81.5076 25.4006 81.5076 25.2399 81.5076 25.0791V24.4361C81.5076 24.3559 81.5076 24.3158 81.4875 24.2956C81.4672 24.2753 81.4266 24.2753 81.3452 24.2753H81.1828H77.4484C77.2855 24.2753 77.2043 24.2753 77.1639 24.3159C77.1237 24.3562 77.1237 24.4366 77.1237 24.5968V25.0791C77.1237 25.2393 77.1237 25.3197 77.1639 25.3601C77.2043 25.4006 77.2855 25.4006 77.4484 25.4006ZM89.7882 29.7413H90.4377H92.0613C92.2237 29.7413 92.386 29.7413 92.386 30.0628V30.7059C92.386 30.786 92.386 30.8262 92.3659 30.8464C92.3457 30.8667 92.3051 30.8667 92.2237 30.8667H88.814C88.751 30.8667 88.7124 30.8667 88.6888 30.8479C88.6516 30.8182 88.6516 30.7419 88.6516 30.5451V24.2754C88.6516 24.1146 88.6516 23.9538 88.814 23.9538H89.4635C89.7882 23.9538 89.7882 23.9538 89.7882 24.2754V28.9375V29.7413ZM74.8505 24.4361V27.4906V27.4908C74.8505 28.6161 74.8505 29.5806 74.6882 30.5451C74.6882 30.8667 74.8505 30.8667 75.0129 30.8667H75.8247C76.1494 30.8667 76.1494 30.7059 76.1494 30.5451V29.259V24.4361C76.1494 24.2759 76.1494 24.1955 76.1093 24.1552C76.0688 24.1146 75.9876 24.1146 75.8247 24.1146H75.1752C75.0123 24.1146 74.9312 24.1146 74.8907 24.1552C74.8505 24.1955 74.8505 24.2759 74.8505 24.4361ZM93.5226 27.4906V24.4361C93.5226 24.2759 93.5226 24.1955 93.5628 24.1552C93.6032 24.1146 93.6844 24.1146 93.8473 24.1146H94.3344C94.4973 24.1146 94.5785 24.1146 94.6189 24.1552C94.6591 24.1955 94.6591 24.2759 94.6591 24.4361V28.1337V30.5451C94.6591 30.7054 94.6591 30.7857 94.6189 30.8261C94.5785 30.8667 94.4973 30.8667 94.3344 30.8667H93.6849C93.5226 30.8667 93.3602 30.8667 93.3602 30.5451V27.4906H93.5226ZM55.8537 24.4361V27.4906V30.5451C55.8537 30.7054 55.8537 30.7857 55.8939 30.8261C55.9344 30.8667 56.0156 30.8667 56.1785 30.8667H56.8279C57.1527 30.8667 57.1527 30.8667 57.1527 30.5451V25.7222V24.4361C57.1527 24.1146 57.1527 24.1146 56.8279 24.1146H56.1785C56.0156 24.1146 55.9344 24.1146 55.8939 24.1552C55.8537 24.1955 55.8537 24.2759 55.8537 24.4361Z" fill="#313030"/>
</svg>
