<svg xmlns="http://www.w3.org/2000/svg" xmlns:xlink="http://www.w3.org/1999/xlink" width="95" zoomAndPan="magnify" viewBox="0 0 71.25 78.749998" height="105" preserveAspectRatio="xMidYMid meet" version="1.0"><defs><clipPath id="9a17d48f25"><path d="M 5.640625 16.671875 L 66.753906 16.671875 L 66.753906 77.691406 L 5.640625 77.691406 Z M 5.640625 16.671875 " clip-rule="nonzero"/></clipPath><clipPath id="858c2caef6"><path d="M 43.5625 11.660156 L 70.40625 11.660156 L 70.40625 38.453125 L 43.5625 38.453125 Z M 43.5625 11.660156 " clip-rule="nonzero"/></clipPath></defs><g clip-path="url(#9a17d48f25)"><path fill="#316d69" d="M 36.15625 16.738281 C 35.363281 45.78125 34.722656 46.421875 5.679688 47.214844 C 34.722656 48.007812 35.363281 48.652344 36.15625 77.691406 C 36.949219 48.652344 37.59375 48.007812 66.632812 47.214844 C 37.59375 46.421875 36.949219 45.78125 36.15625 16.738281 " fill-opacity="1" fill-rule="nonzero"/></g><path fill="#316d69" d="M 8.789062 52.363281 C 8.5625 60.738281 8.375 60.921875 0 61.152344 C 8.375 61.378906 8.5625 61.566406 8.789062 69.941406 C 9.019531 61.566406 9.203125 61.378906 17.578125 61.152344 C 9.203125 60.921875 9.019531 60.738281 8.789062 52.363281 " fill-opacity="1" fill-rule="nonzero"/><g clip-path="url(#858c2caef6)"><path fill="#316d69" d="M 57.054688 38.367188 C 57.402344 25.640625 57.683594 25.359375 70.410156 25.011719 C 57.683594 24.664062 57.402344 24.382812 57.054688 11.660156 C 56.707031 24.382812 56.425781 24.664062 43.703125 25.011719 C 56.425781 25.359375 56.707031 25.640625 57.054688 38.367188 " fill-opacity="1" fill-rule="nonzero"/></g></svg>