<svg width="109" height="75" viewBox="0 0 109 75" fill="none" xmlns="http://www.w3.org/2000/svg">
<path fill-rule="evenodd" clip-rule="evenodd" d="M57.9861 0C58.1562 0 58.3262 1.03341e-05 58.4963 0.169311C59.1765 0.338611 59.6866 0.677191 59.8566 1.52369V6.94132C59.8566 8.46502 59.8566 10.158 59.6866 11.6817V11.851C59.6866 12.1896 59.8567 12.3589 60.1968 12.3589H60.3668C60.3668 12.6975 60.3668 13.2054 59.8566 13.3747C59.5165 13.544 59.0064 13.544 58.6663 13.544C58.3263 13.3747 58.1562 13.2054 58.1562 12.8668C58.1562 12.8156 58.1406 12.7488 58.1236 12.676C58.0844 12.5081 58.0376 12.3077 58.1562 12.1896V8.46501C58.12 8.46501 58.0377 8.45735 57.9256 8.44692C57.5105 8.40831 56.6873 8.33172 56.2856 8.46501V13.3747C55.7755 13.544 55.4354 13.544 54.9253 13.544C54.7553 13.544 54.5852 13.3747 54.5852 13.2054V12.1896C54.5852 9.98871 54.5852 7.61851 54.7552 5.4176V2.20091C54.7552 1.18511 55.2654 0.507911 56.2856 0.169311C56.4557 0.169311 56.6258 0.1693 56.7958 0H57.9861ZM56.4557 6.94132H58.3262V2.37019C58.3262 1.86229 58.1562 1.69299 57.6461 1.52369H57.1359C56.7958 1.52369 56.4557 1.86231 56.4557 2.20091V6.94132Z" fill="#313030"/>
<path d="M0 17.2686C0 17.3533 0.0425143 17.3956 0.0850285 17.4379C0.127543 17.4802 0.170057 17.5226 0.170057 17.6072L3.2309 20.6546C6.20056 23.5268 9.21254 26.4411 12.2246 29.3555L12.2437 29.374C15.2619 32.2943 18.2801 35.2146 21.2558 38.0926C21.4259 38.0926 21.4259 38.0926 21.5959 38.2618L0.340088 59.4244L1.53044 60.6095L22.4461 39.2777C24.4867 41.14 26.3572 43.0023 28.2278 44.8646L29.078 44.0181L23.2964 38.2619C24.3387 37.2241 25.3366 36.1864 26.3129 35.1712C27.2477 34.1992 28.1631 33.2473 29.078 32.3364L28.2278 31.4899C27.6105 32.1044 26.9933 32.7374 26.3699 33.3766C25.1044 34.6744 23.8132 35.9984 22.4461 37.2461L1.19032 16.0835L0 17.2686Z" fill="#313030"/>
<path fill-rule="evenodd" clip-rule="evenodd" d="M109 43.0023V42.833H107.98V41.14C107.81 40.1242 107.47 39.1084 106.959 38.2619C106.619 37.754 106.279 37.2461 105.769 36.7382C105.769 36.7382 105.599 36.7382 105.599 36.5689C105.704 36.5689 105.744 36.5042 105.8 36.4148C105.834 36.3596 105.874 36.2949 105.939 36.2303C106.789 35.2145 107.47 34.0294 107.81 32.675C107.98 32.5057 107.98 32.167 107.98 31.9977V30.3047C107.81 29.2889 107.47 28.2732 106.789 27.596C105.599 26.4109 103.899 25.5644 102.028 26.2416H101.858C101.858 26.1569 101.901 26.1146 101.943 26.0723C101.986 26.0299 102.028 25.9876 102.028 25.903C102.135 25.6894 102.259 25.4591 102.39 25.2172L102.391 25.2156L102.391 25.2146C102.674 24.6901 102.986 24.1112 103.218 23.5327C103.388 23.1941 103.559 22.6863 103.559 22.1784C103.729 20.824 103.218 19.3002 101.858 18.623C101.348 18.2844 100.498 18.1151 99.8175 18.2844C98.6272 18.623 97.6069 19.4695 97.0967 20.6546C96.9267 20.8239 96.9267 21.1624 96.9267 21.3317C96.9267 21.8396 97.2668 22.3477 97.777 22.517C98.2871 22.6863 98.7972 22.517 99.1373 22.1784C99.3074 22.1784 99.4774 22.009 99.4774 21.8397C99.9876 20.9932 99.4774 20.1467 98.4571 20.1467H98.117C98.117 19.9774 98.117 19.9774 98.287 19.8082C98.9672 19.131 99.8175 18.7924 100.838 18.7924C101.858 18.9617 102.538 19.6389 102.708 20.4854C102.822 20.7111 102.784 20.9368 102.746 21.1625C102.727 21.2754 102.708 21.3883 102.708 21.5011C102.538 22.5169 102.198 23.3635 101.688 24.21C101.433 24.7179 101.135 25.2681 100.838 25.8183L100.837 25.8193C100.54 26.3692 100.242 26.919 99.9875 27.4266C99.9025 27.596 99.8175 27.8076 99.7325 28.0192C99.6475 28.2308 99.5624 28.4425 99.4774 28.6117C99.3074 29.2889 99.1373 29.9662 99.1373 30.6434C99.1373 31.8285 99.9876 33.0136 101.008 33.3522C101.036 33.3614 101.063 33.3707 101.09 33.3799C101.127 33.3924 101.163 33.4049 101.198 33.417C101.609 33.5596 101.924 33.6689 102.368 33.5215C103.729 33.1829 104.919 31.9978 105.089 30.6434C105.089 29.9662 104.919 29.4583 104.579 29.1196C103.899 28.6118 103.048 28.6118 102.538 29.289C102.198 29.7969 102.198 30.3048 102.538 30.8127C103.048 31.3206 103.559 31.4899 104.069 31.1512C104.154 31.1512 104.196 31.1089 104.239 31.0666C104.281 31.0243 104.324 30.982 104.409 30.982C104.239 31.1513 104.239 31.3206 104.239 31.4899C103.899 32.3364 103.388 32.8443 102.368 33.0136C101.008 33.1829 100.158 32.1671 100.328 30.982C100.413 30.728 100.498 30.5164 100.583 30.3048C100.668 30.0932 100.753 29.8814 100.838 29.6276C100.945 29.4131 101.07 29.1817 101.201 28.9386C101.484 28.4143 101.796 27.8358 102.028 27.2574C102.028 27.2574 102.028 27.0881 102.198 27.0881C102.305 27.0527 102.404 27.0174 102.498 26.9836C102.858 26.8555 103.155 26.7495 103.559 26.7495C104.579 26.7495 105.429 27.088 106.109 27.7652C106.619 28.2731 106.959 28.781 107.13 29.4582C107.449 30.2544 107.318 30.9009 107.16 31.6792L107.13 31.8285C106.619 33.3522 105.769 34.5373 104.749 35.5531H104.579C104.494 35.5531 104.451 35.5107 104.409 35.4684C104.366 35.4261 104.324 35.3838 104.239 35.3838C103.218 34.7066 102.028 34.1987 100.668 34.0294C98.4571 33.6908 96.7566 34.5373 95.5663 36.2303C95.5014 36.2949 95.4447 36.3486 95.3963 36.3945C95.2626 36.5211 95.192 36.588 95.1844 36.6613C95.1759 36.7435 95.2465 36.8339 95.3963 37.0254C95.4447 37.0873 95.5014 37.1598 95.5663 37.2461C96.9267 39.1084 98.9673 39.7856 101.178 39.447C102.368 39.2777 103.388 38.7698 104.409 38.0926C104.579 38.0926 104.749 37.9233 104.749 37.9233H104.919C105.939 38.9391 106.619 39.9549 107.13 41.3093C107.3 42.1558 107.47 43.0023 107.3 43.8488C106.959 45.7111 104.579 47.4041 102.368 46.3883C102.303 46.3236 102.238 46.2836 102.183 46.2495C102.093 46.1943 102.028 46.1543 102.028 46.0497C101.642 45.5368 101.353 44.9267 101.088 44.3667C101.003 44.1874 100.92 44.013 100.838 43.8488L100.328 42.3251C100.158 41.3093 100.838 40.2935 102.028 40.4628C103.048 40.4628 103.899 40.9707 104.239 41.9865V42.3251C104.154 42.3251 104.111 42.2827 104.069 42.2404C104.026 42.1981 103.984 42.1558 103.899 42.1558C103.778 42.1558 103.679 42.1345 103.586 42.1146C103.417 42.0783 103.268 42.0464 103.048 42.1558C102.538 42.3251 102.198 42.6637 102.198 43.1716C102.198 43.8488 102.538 44.1874 103.048 44.526C103.559 44.6953 104.069 44.6953 104.409 44.3567C105.089 43.8488 105.259 43.3409 105.089 42.6637C104.749 41.3093 103.899 40.4628 102.708 39.9549C101.858 39.6163 101.008 39.7856 100.328 40.2935C99.3074 40.9707 98.9673 41.9865 99.1373 43.1716C99.3074 43.8488 99.6474 44.6953 99.9875 45.3725C100.158 45.6264 100.285 45.8803 100.413 46.1342C100.54 46.3881 100.668 46.6423 100.838 46.8962C101.348 47.7426 101.858 48.7582 102.368 49.7739C102.653 50.3412 102.819 51.0276 102.965 51.6335L102.965 51.6352C102.993 51.752 103.021 51.8658 103.048 51.9752C103.218 53.1603 102.708 54.1761 101.518 54.3454C100.498 54.684 99.4774 54.1761 98.7972 53.3296C98.7972 53.3296 98.6272 53.1603 98.6272 52.991H98.9673C99.6474 52.991 100.328 52.6524 100.328 51.8059C100.328 51.1287 99.9876 50.6208 99.3074 50.4515C98.9673 50.4515 98.7972 50.4515 98.4571 50.6208C98.117 50.9594 97.7769 51.4673 97.947 51.9752C97.947 52.3138 97.947 52.4831 98.117 52.6524C98.6272 53.4989 99.3074 54.1761 100.328 54.684C100.838 55.0226 101.518 55.0226 102.198 54.8533C103.559 54.5147 104.579 53.1603 104.749 51.8059C104.919 50.9594 104.749 50.2822 104.409 49.605C104.239 49.1818 104.026 48.7586 103.814 48.3355C103.601 47.9122 103.388 47.4887 103.218 47.0655C103.218 46.9808 103.176 46.9385 103.133 46.8962C103.091 46.8539 103.048 46.8115 103.048 46.7269C103.218 46.8962 103.218 46.8962 103.388 46.8962C104.069 47.2348 104.749 47.2348 105.429 47.0655C107.13 46.7269 108.83 45.2032 109 43.0023ZM97.947 36.7382C99.4774 37.9233 102.028 37.754 103.559 36.7382C101.858 35.5531 99.4774 35.5531 97.947 36.7382Z" fill="#313030"/>
<path d="M56.7235 74.3831C56.8222 74.6377 56.912 74.8693 57.3058 75H58.156C58.156 74.8307 58.3261 74.8307 58.3261 74.8307C58.6662 74.6614 58.8362 74.4921 58.8362 73.9842H58.6662C58.6038 73.9532 58.5471 73.9278 58.4962 73.905C58.2694 73.8035 58.156 73.7528 58.156 73.4763V71.9526C58.3261 69.7517 58.3261 67.5508 58.3261 65.3499V64.6727C58.1561 64.1648 57.816 63.8262 57.3058 63.6569C56.6256 63.4876 55.9454 63.6569 55.4353 63.9955L55.2653 64.1648C54.7551 63.4876 54.245 63.3183 53.7348 63.6569C53.3947 63.8262 53.2247 64.1648 53.2247 64.5034H53.3948C53.4572 64.5345 53.5139 64.5599 53.5648 64.5827C53.7915 64.6841 53.9049 64.7348 53.9049 65.0113V65.1806C53.7348 67.5508 53.7348 69.7517 53.7348 72.1219V74.4921C53.7348 74.8307 53.7348 74.8307 54.0749 74.8307H55.0952V72.7991C55.2653 70.4289 55.2653 67.8894 55.2653 65.5192C55.2653 65.1807 55.2653 65.0113 55.6053 64.842C55.7754 64.6727 55.7754 64.6727 55.9455 64.6727C56.4556 64.5034 56.7957 64.842 56.7957 65.3499V67.0429C56.6256 69.2438 56.6256 71.4447 56.6256 73.6456V74.1535C56.6644 74.2307 56.6943 74.3079 56.7235 74.3831Z" fill="#313030"/>
<path d="M32.3089 39.7855H38.7706V48.0812H47.443C48.6334 48.0812 49.8237 47.912 51.014 47.5734C51.6942 47.4041 52.2043 47.0655 52.7145 46.5576C53.9048 45.5418 54.4149 44.1873 54.2449 42.6636C54.2449 41.9865 54.0749 41.4786 53.9048 40.9708C53.2246 39.6164 52.2043 38.7698 50.6739 38.2619C50.5039 38.2619 50.3338 38.2618 50.1638 38.0925C50.3338 38.0925 50.3338 38.0925 50.3338 37.9234C52.2043 37.4155 53.2246 36.0609 53.3947 34.1986C53.5647 32.5056 52.8845 30.9819 51.3541 29.9661C50.844 29.6275 50.3338 29.4583 49.8237 29.289C49.6999 29.2643 49.5796 29.2396 49.4619 29.2155C48.7719 29.074 48.1692 28.9503 47.443 28.9503H38.7706V36.7381H32.3089V25.7336C32.3089 24.5485 33.1591 23.702 34.3494 23.5327H58.4961C59.3463 23.702 60.0265 24.5485 60.0265 25.5643V49.4357C59.8564 50.2822 59.0062 50.9594 58.1559 50.9594H34.0093C32.989 50.7901 32.4789 49.9436 32.3089 48.9277V39.7855Z" fill="#313030"/>
<path fill-rule="evenodd" clip-rule="evenodd" d="M77.3713 30.6433C75.5008 29.4582 73.4602 28.9503 71.4196 28.9503C70.0593 28.9503 68.8689 29.1196 67.6786 29.7968C62.9173 31.4898 60.3666 36.2302 61.5569 40.9706C62.2371 44.018 64.1076 46.0497 66.8284 47.4041C69.039 48.4199 71.2496 48.5891 73.6302 48.0812C75.6708 47.5733 77.3713 46.7269 78.7316 45.3725C80.9422 43.1716 81.7925 40.4628 81.4524 37.4154C81.1123 34.5373 79.7519 32.3363 77.3713 30.6433ZM71.4196 31.8284C75.1607 31.8284 78.2215 34.8758 78.2215 38.6005C78.2215 42.1558 75.5008 45.3725 71.2496 45.3725C67.5086 45.3725 64.4477 42.3251 64.4477 38.6005C64.4477 34.7065 67.6786 31.8284 71.4196 31.8284Z" fill="#313030"/>
<path d="M67.1686 14.0519C66.6585 14.0519 66.1483 14.0519 65.8082 13.8826C65.6382 13.8826 65.4681 13.7133 65.6382 13.544C65.6382 13.2054 65.6382 12.8668 65.8082 12.6975C65.9783 11.7665 66.1058 10.8778 66.2333 9.98912C66.3608 9.10031 66.4884 8.21103 66.6585 7.2799L67.1686 3.21668V2.7088C67.1686 2.3702 66.9986 2.20088 66.6585 2.03158C66.1483 1.86228 65.8083 2.03157 65.4682 2.37018C65.4682 2.37018 65.2981 2.5395 65.2981 2.7088C65.1281 3.5553 64.958 4.57108 64.958 5.41759C64.865 6.25109 64.7211 7.08459 64.582 7.89039C64.4668 8.55764 64.3548 9.20589 64.2778 9.8194C64.1078 10.8352 63.9377 12.0203 63.9377 13.0361V13.544C63.4276 13.544 62.9174 13.544 62.5774 13.3747C62.4073 13.3747 62.4073 13.2054 62.4073 13.0361C62.4073 12.6975 62.4073 12.5282 62.5774 12.1896C62.7474 11.0891 62.9175 9.94633 63.0875 8.80354C63.2575 7.66091 63.4276 6.51789 63.5976 5.41759L64.1078 2.37018V2.20089C64.1078 1.69305 64.1078 1.69297 63.5976 1.52367H63.4276C63.4276 1.01577 63.5976 0.677173 64.1078 0.677173C64.3345 0.564306 64.5612 0.601928 64.788 0.639551C64.9013 0.658362 65.0147 0.677173 65.1281 0.677173C65.2981 0.677173 65.4681 0.846426 65.6381 1.01569C65.6381 1.10034 65.6807 1.14277 65.7232 1.18509C65.7657 1.22742 65.8082 1.26974 65.8082 1.35439C66.3184 1.01579 66.9986 0.846494 67.5087 1.01579C68.1889 1.18509 68.699 1.35438 69.0391 2.03158C69.1241 2.03158 69.1666 1.98926 69.2092 1.94694C69.2517 1.90462 69.2942 1.8623 69.3792 1.8623C70.0594 1.52369 70.9096 1.35438 71.5898 1.69298C72.27 2.03158 72.6101 2.53948 72.6101 3.21668C72.6101 3.72458 72.6101 4.23249 72.44 4.74039C72.355 5.50225 72.2275 6.2641 72.1 7.02595C71.9724 7.7878 71.8449 8.54964 71.7599 9.3115C71.6749 9.9879 71.59 10.6221 71.5051 11.2562L71.5048 11.2582C71.4198 11.893 71.3348 12.5282 71.2497 13.2054V13.544C71.2497 13.7133 71.4198 13.8826 71.5898 14.0519H71.7599C71.7599 14.3905 71.5898 14.8984 71.0797 14.8984C70.7396 15.0677 70.3995 15.0677 69.8893 14.8984C69.5492 14.7291 69.3792 14.3905 69.3792 14.0519V13.2054C69.5493 11.9357 69.7193 10.7082 69.8894 9.4808L69.8899 9.47663C70.0598 8.25058 70.2297 7.0245 70.3995 5.75618C70.4845 5.41763 70.527 5.07909 70.5695 4.74054C70.612 4.40194 70.6545 4.06318 70.7396 3.72458C70.7396 3.38598 70.5695 3.04738 70.2295 2.87808C69.8894 2.70878 69.5493 2.87809 69.2092 3.04739L68.8691 3.38599L68.3589 6.4334C68.2659 7.26682 68.122 8.10023 67.9829 8.90594C67.8677 9.5732 67.7558 10.2217 67.6788 10.8352C67.5087 11.8509 67.3386 12.8669 67.3386 14.0519H67.1686Z" fill="#313030"/>
<path d="M52.7146 13.7133C53.0547 13.544 53.3948 13.0361 53.2247 12.5282C53.0547 12.3589 53.0547 12.3589 52.8846 12.5282C52.8222 12.4971 52.7655 12.4718 52.7146 12.4489C52.4878 12.3475 52.3745 12.2968 52.3745 12.0203V11.851C52.2895 11.0045 52.2044 10.2003 52.1194 9.39615C52.0344 8.59198 51.9494 7.7878 51.8644 6.9413L51.3542 2.87808C51.3542 2.53948 51.3542 2.2009 51.1841 1.8623C51.0141 1.35439 50.504 1.01578 49.9938 0.846484C49.3137 0.677183 48.6335 0.846489 47.9533 1.35439L47.6132 1.69298L47.4431 1.52367C47.2731 1.35437 47.103 1.18508 46.933 1.18508C46.5929 1.18508 46.2528 1.18509 45.9127 1.35439C45.5726 1.52369 45.4026 1.86227 45.5726 2.37018H45.7427C46.0828 2.37018 46.2528 2.53948 46.2528 2.87808V3.04739C46.2528 3.30134 46.2953 3.59762 46.3378 3.89389C46.3803 4.19017 46.4229 4.48644 46.4229 4.74039C46.4229 5.92534 46.5929 7.11027 46.7629 8.29522C46.8479 8.97242 46.933 9.69241 47.018 10.4119C47.103 11.1315 47.1881 11.851 47.2731 12.5282C47.2731 12.7821 47.3156 12.9938 47.3581 13.2054C47.4006 13.417 47.4431 13.6286 47.4431 13.8826C47.5319 14.0593 47.5743 14.1438 47.6429 14.1842C47.7058 14.2212 47.7906 14.2212 47.9533 14.2212C48.1233 14.2212 48.2509 14.1789 48.3784 14.1366C48.5059 14.0942 48.6335 14.0519 48.8035 14.0519C48.8885 14.0519 48.9736 14.0096 49.0586 13.9673C49.1436 13.9249 49.2286 13.8826 49.3137 13.8826V13.7133C49.2286 13.3747 49.1861 12.9938 49.1436 12.6129C49.1011 12.2319 49.0586 11.851 48.9736 11.5124C48.9736 10.3274 48.8035 9.14245 48.6335 7.95747C48.5485 7.44957 48.5059 6.94129 48.4634 6.43338C48.4209 5.92548 48.3784 5.41758 48.2934 4.90968C48.2934 4.65573 48.2509 4.35945 48.2084 4.06318C48.1658 3.7669 48.1233 3.47063 48.1233 3.21668V2.87808C48.2934 2.7088 48.4634 2.53946 48.8035 2.37018C49.3136 2.20088 49.8238 2.37019 49.8238 3.04739C49.9088 3.55526 49.9513 4.10544 49.9938 4.65562C50.0364 5.2058 50.0789 5.75622 50.1639 6.26409C50.2431 7.13159 50.3592 8.03582 50.4779 8.95968C50.6139 10.019 50.7533 11.1044 50.8441 12.1896C50.8441 12.5282 50.8441 12.8668 51.0141 13.2054C51.1842 13.7133 51.5242 13.8826 52.0344 13.8826C52.2336 13.8826 52.3745 13.8245 52.4912 13.7764C52.5737 13.7424 52.6442 13.7133 52.7146 13.7133Z" fill="#313030"/>
<path d="M42.1716 45.2031V39.7855H47.273C47.9532 39.7855 48.6334 39.7855 49.1436 40.1241C49.4837 40.2934 49.8237 40.4627 49.9938 40.632C51.3542 41.4785 51.1841 43.5101 50.1638 44.3566C49.6537 44.6952 49.1435 45.0339 48.4634 45.0339C48.2933 45.0339 48.0808 45.0762 47.8682 45.1185C47.6556 45.1608 47.4431 45.2031 47.273 45.2031H42.1716Z" fill="#313030"/>
<path d="M18.1949 10.4966C17.8549 10.8352 17.6848 11.3431 18.0249 11.851C18.7051 11.6817 18.8752 11.6817 19.3853 12.0203C19.3853 12.0203 19.5553 12.1896 19.5553 12.3589C21.0857 15.4063 22.9563 18.1151 25.1669 20.6546L25.677 21.1625C25.8471 21.3318 26.1872 21.3318 26.5273 21.1625C26.6973 20.9932 27.0374 20.8239 27.3775 20.6546C27.5475 20.4853 27.7176 20.316 27.7176 19.9774V19.4695C27.7176 18.9616 27.5475 18.4537 27.3775 17.9458C26.6973 15.5756 25.677 13.2054 24.6567 10.8352C24.3167 9.98884 23.9765 9.14208 23.4664 8.29571C23.2964 7.95711 23.1263 7.95713 22.7862 8.12643C22.6162 8.21108 22.4886 8.29573 22.3611 8.38038C22.2336 8.46503 22.106 8.54968 21.936 8.63433C21.851 8.63433 21.8085 8.67665 21.7659 8.71897C21.7234 8.7613 21.6809 8.80362 21.5959 8.80362C22.2761 9.65012 22.7862 10.4966 23.1263 11.3431C24.3166 13.8826 25.3369 16.5914 26.1872 19.3002V19.6388C26.0171 19.6388 25.847 19.4695 25.847 19.4695C25.1669 18.623 24.4867 17.7765 23.8065 16.7607C22.4461 14.8984 21.2558 13.0361 20.2355 11.0045C20.1505 10.9199 20.0655 10.7929 19.9805 10.666C19.8955 10.539 19.8104 10.412 19.7254 10.3273C19.3853 9.98873 19.0452 9.98872 18.7051 10.158C18.535 10.158 18.365 10.3273 18.1949 10.4966Z" fill="#313030"/>
<path d="M85.8737 9.48084C86.0438 9.09991 86.2138 8.71898 86.3839 8.29573C86.3839 8.12644 86.3839 8.12643 86.5539 7.95717C86.6938 7.67855 86.6035 7.51452 86.4723 7.27651C86.4441 7.2253 86.4139 7.17058 86.3839 7.11063C86.2138 6.94133 86.0438 6.77204 85.7037 6.77204C85.1935 6.77204 85.0235 6.77204 84.8534 7.27994C84.5133 7.95714 84.1733 8.80365 84.0032 9.48085C83.8332 9.81945 83.8332 10.3273 84.1733 10.6659C84.4282 11.0044 84.6407 11.3006 84.8532 11.5967C85.0657 11.893 85.2786 12.1897 85.5336 12.5282C86.0438 13.2054 86.0438 13.8827 85.7037 14.5599L84.6834 17.0994C84.3433 18.1152 83.4931 18.4537 82.3027 18.4537C81.6226 18.2844 80.9424 18.1151 80.4322 17.6072C80.0921 17.2687 79.752 16.93 79.752 16.5915C79.582 16.2529 79.582 15.9142 79.752 15.5756C79.9221 15.1524 80.0921 14.7715 80.2622 14.3906C80.4322 14.0097 80.6023 13.6287 80.7723 13.2055C80.9424 12.8669 81.1124 12.8669 81.2824 12.8669C81.7926 12.8669 82.1327 13.0362 82.4728 13.2055C82.3027 13.6287 82.1327 14.0097 81.9626 14.3906C81.7926 14.7715 81.6225 15.1524 81.4525 15.5756C81.2825 15.9142 81.2825 16.2529 81.4525 16.5915C81.7926 16.9301 82.1327 17.0994 82.6428 16.9301C82.8128 16.9301 83.153 16.7607 83.153 16.4221C83.4931 15.7449 83.8332 14.8984 84.0032 14.2212C84.1733 13.7133 84.1732 13.3747 83.8331 13.0361C83.6411 12.7812 83.4731 12.5262 83.3111 12.2802C83.0428 11.873 82.7909 11.4905 82.4728 11.1739C82.1327 10.666 81.9626 9.98875 82.3027 9.48085C82.5208 8.8296 82.8087 8.17834 83.0769 7.5717C83.227 7.23214 83.371 6.9065 83.493 6.60273C83.8331 5.75623 84.6834 5.41763 85.5336 5.41763C86.3839 5.41763 87.064 5.75623 87.5742 6.26413C87.7442 6.43343 87.9143 6.60275 88.0843 6.94135C88.4244 7.44925 88.4244 7.78783 88.2544 8.29573C88.0843 8.71898 87.9143 9.09991 87.7442 9.48084C87.5742 9.86163 87.4041 10.2428 87.2341 10.6659C87.064 10.8352 86.894 11.0045 86.724 11.0045C86.2138 11.0045 85.7037 11.0045 85.3636 10.6659C85.5335 10.2428 85.7037 9.86163 85.8737 9.48084Z" fill="#313030"/>
<path d="M36.0499 10.8352L35.5398 9.81946C35.3698 9.90411 35.1572 9.98876 34.9446 10.0734C34.7321 10.1581 34.5195 10.2427 34.3495 10.3274C33.8393 10.4967 33.4992 10.3274 33.3292 9.81946V9.65015L32.3089 6.60274C32.1389 6.43346 32.1389 6.43344 32.1389 6.26419C32.1389 5.92559 32.1389 5.58694 32.479 5.41764C32.479 5.41764 32.649 5.24836 32.819 5.24836C33.3292 5.07906 33.6693 5.24834 33.8393 5.75624L34.3495 7.27996C34.5195 7.27996 34.5195 7.44925 34.5195 7.61855C35.0296 7.61855 35.3697 7.44925 35.7098 7.11065C35.8799 6.94135 35.8799 6.77204 35.8799 6.60274L35.3697 5.07905C35.1997 4.40185 34.6895 4.06325 34.0094 3.89395C32.9891 3.72465 32.1389 4.06325 31.2886 4.74045C30.7785 5.07905 30.6084 5.41765 30.6084 5.92555C30.6084 6.26415 30.6084 6.60276 30.7785 6.94136L31.7988 9.98874C31.9688 10.4966 32.1389 11.0046 32.819 11.3432C32.4789 11.8511 32.4789 12.359 32.649 12.8669C32.819 13.29 32.989 13.7555 33.159 14.221C33.3291 14.6865 33.4992 15.1524 33.6693 15.5757C33.6693 15.6603 33.7118 15.7026 33.7543 15.745C33.7968 15.7873 33.8393 15.8296 33.8393 15.9143C34.1794 16.5915 34.8596 16.9301 35.5398 16.9301C36.39 16.9301 37.0702 16.7608 37.7504 16.2529C38.0905 16.0836 38.2605 15.9143 38.4306 15.5757C38.4525 15.5101 38.4745 15.4473 38.4957 15.3866C38.6389 14.9775 38.7487 14.6636 38.6006 14.2213C38.6006 13.8827 38.4306 13.3748 38.2605 13.0362C38.0905 12.8669 37.9204 12.6976 37.7504 12.6976C37.2402 12.6976 36.7301 12.8669 36.39 13.0362C36.5601 13.2054 36.5601 13.2054 36.5601 13.3747C36.5601 13.8826 36.7301 14.2213 36.9002 14.5599C37.0702 14.8985 36.9002 15.2371 36.5601 15.4064C36.475 15.4064 36.39 15.4487 36.305 15.491C36.22 15.5333 36.1349 15.5757 36.0499 15.5757C35.5398 15.745 35.1997 15.5757 35.0297 15.0678C34.8596 14.6445 34.7321 14.2212 34.6045 13.798C34.477 13.3747 34.3495 12.9515 34.1794 12.5282C34.0094 12.0203 34.1794 11.6818 34.6896 11.5125H34.8596C35.0296 11.4278 35.1997 11.3855 35.3697 11.3432C35.5398 11.3008 35.7098 11.2585 35.8799 11.1739C36.0499 11.1739 36.0499 11.0045 36.0499 10.8352Z" fill="#313030"/>
<path d="M76.8612 12.8668C77.3714 12.8668 77.8816 13.0361 78.2216 13.3747C78.3917 13.544 78.3917 13.7132 78.3917 13.8825C78.3066 14.1365 78.2641 14.3482 78.2216 14.5598C78.1791 14.7715 78.1366 14.9831 78.0516 15.237C77.8815 15.9142 77.2014 16.2528 76.5212 16.4221C75.671 16.5914 74.8207 16.2528 74.1405 15.7449C73.4603 15.237 73.1202 14.3905 73.2903 13.544C73.4603 13.0361 73.5879 12.5705 73.7154 12.1049C73.8429 11.6394 73.9704 11.1738 74.1405 10.6659C74.3105 10.158 74.4806 9.98873 74.9907 9.48083C74.9907 9.48083 74.9908 9.31152 74.8207 9.31152C74.6507 8.97292 74.6507 8.46503 74.8207 8.12643L74.8216 8.12351C75.1614 6.93938 75.5011 5.75539 75.841 4.74042C76.181 3.72462 76.8613 3.2167 77.8815 3.2167C78.5617 3.2167 79.2419 3.38602 79.9221 3.89392C80.4323 4.23252 80.7724 4.57113 80.7724 5.24833V5.92552L80.2622 7.44921C80.231 7.51128 80.2056 7.56765 80.1827 7.61834C80.0808 7.84405 80.0297 7.95712 79.7521 7.95712C79.412 7.95712 78.9018 7.95712 78.5617 7.61852V7.44921L78.562 7.44832C78.732 6.94072 78.9019 6.43301 79.0719 5.75621C79.2419 5.24831 79.0719 5.07901 78.5617 4.90971H78.2216C77.7115 4.74041 77.3714 5.07901 77.2014 5.41761C77.1163 5.84086 76.9888 6.22179 76.8613 6.60272C76.7337 6.98365 76.6062 7.36458 76.5212 7.78783C76.4362 7.95713 76.3936 8.12643 76.3511 8.29573C76.3086 8.46502 76.2661 8.63432 76.1811 8.80362C76.011 9.31152 76.181 9.65013 76.6912 9.81943C76.7762 9.81943 76.9038 9.86175 77.0313 9.90407C77.1589 9.94639 77.2864 9.98871 77.3714 9.98871C77.5415 9.98871 77.8815 9.98872 78.0516 10.158C78.0516 10.4966 78.0516 11.0045 77.8815 11.3431C77.8815 11.5124 77.7115 11.5124 77.5414 11.5124C77.3714 11.4278 77.2013 11.3855 77.0313 11.3431C76.8613 11.3008 76.6912 11.2585 76.5212 11.1738H76.1811C75.6709 11.1738 75.5009 11.3431 75.3308 11.6817L74.8207 13.2054C74.7357 13.3747 74.6932 13.544 74.6507 13.7133C74.6081 13.8826 74.5656 14.0519 74.4806 14.2212C74.3106 14.7291 74.4806 15.0677 74.9907 15.237C75.0757 15.237 75.1608 15.2794 75.2458 15.3217C75.3308 15.364 75.4159 15.4063 75.5009 15.4063C75.841 15.4063 76.1811 15.237 76.1811 14.8984C76.2661 14.7291 76.3086 14.5598 76.3511 14.3905C76.3936 14.2212 76.4362 14.0519 76.5212 13.8826C76.5486 13.7462 76.5716 13.6273 76.5916 13.5239C76.6955 12.9866 76.7187 12.8668 76.8612 12.8668Z" fill="#313030"/>
<path d="M89.1046 13.0361C88.7645 13.544 88.5945 14.0519 88.7645 14.7291C88.2544 14.8984 87.9143 15.0677 88.0844 15.5756C87.5742 16.4221 87.0641 17.2686 86.5539 18.2844C86.2139 18.9616 86.2139 19.6388 86.724 20.316C86.724 20.4853 86.894 20.6546 87.0641 20.8239C87.4041 21.1625 87.9142 21.3318 88.4243 21.5011C88.7644 21.6704 89.1046 21.6705 89.4447 21.6705C89.9548 21.6705 90.295 21.5011 90.635 20.9932C90.7201 20.8239 90.8476 20.6123 90.9751 20.4007C91.1027 20.1891 91.2302 19.9774 91.3152 19.8081C91.4853 19.6388 91.4853 19.4695 91.3152 19.3002C90.9751 18.7923 90.6351 18.623 90.1249 18.4537C90.1249 18.5384 90.0824 18.5807 90.0399 18.623C89.9974 18.6654 89.9549 18.7077 89.9549 18.7924L89.4447 19.8081C89.4447 19.9774 89.2747 20.1467 89.1046 20.1467C88.7645 20.316 88.2544 20.1467 87.9143 19.8081C87.7443 19.4695 87.7443 19.131 87.9143 18.7924C88.0843 18.1151 88.4244 17.6072 88.7645 17.0993C88.8496 17.0147 88.8921 16.8877 88.9346 16.7607C88.9771 16.6338 89.0196 16.5068 89.1046 16.4221C89.2747 16.0835 89.7848 15.9142 90.1249 16.0835C90.21 16.0835 90.2525 16.1259 90.295 16.1682C90.3375 16.2105 90.38 16.2528 90.465 16.2528C90.635 16.3375 90.7626 16.4221 90.8901 16.5068C91.0177 16.5914 91.1452 16.6761 91.3152 16.7607C91.4853 16.93 91.4853 16.93 91.6553 16.7607C91.9954 16.4221 92.1655 15.9142 92.1655 15.5756C92.0804 15.491 91.9529 15.4487 91.8254 15.4063C91.6978 15.364 91.5703 15.3217 91.4853 15.237C91.3554 15.1724 91.2503 15.1324 91.1605 15.0983C91.0153 15.043 90.9102 15.0031 90.8051 14.8984C90.295 14.7291 90.295 14.3905 90.465 13.8826C90.72 13.3748 91.0176 12.867 91.3151 12.3592C91.6127 11.8513 91.9104 11.3431 92.1655 10.8352C92.5056 10.4966 92.8457 10.3273 93.1858 10.4966C93.3558 10.4966 93.5258 10.4966 93.6959 10.6659C93.726 10.7259 93.7561 10.7806 93.7843 10.8318C93.9155 11.0698 94.0059 11.2338 93.8659 11.5124C93.8659 11.5971 93.8234 11.6394 93.7809 11.6817C93.7384 11.7241 93.6959 11.7664 93.6959 11.851C93.5258 12.105 93.3983 12.3589 93.2708 12.6129C93.1432 12.8668 93.0157 13.1208 92.8456 13.3747C93.1857 13.7133 93.5258 13.8826 94.036 13.8826C94.206 13.8826 94.376 13.7134 94.5461 13.5441C94.7161 13.2901 94.8437 13.0361 94.9712 12.7822C95.0988 12.5282 95.2263 12.2743 95.3963 12.0203C95.5664 11.5124 95.5664 11.0045 95.3963 10.4966C95.3113 10.412 95.2263 10.285 95.1413 10.158C95.0563 10.0311 94.9712 9.90408 94.8862 9.81943C94.3761 9.48083 93.8659 9.14223 93.1858 8.97293C92.6756 8.80363 92.3355 8.80363 91.9954 8.97293C91.4853 9.14223 91.1452 9.48082 90.8051 9.98872C90.125 11.0045 89.6148 12.0204 89.1046 13.0361Z" fill="#313030"/>
<path d="M42.1716 36.9074V31.8284H47.103C47.6131 31.8284 48.2934 31.8284 48.8034 31.9977C49.4836 32.167 50.1638 32.6749 50.3339 33.5214C50.6739 34.5372 50.5039 35.8916 48.9735 36.5688C48.4634 36.7381 47.9532 36.9074 47.4431 36.9074H42.1716Z" fill="#313030"/>
<path fill-rule="evenodd" clip-rule="evenodd" d="M38.6007 60.6094C38.2606 60.6094 37.9205 60.7787 37.7504 61.2866C38.1826 61.43 38.2486 61.5735 38.3621 61.8198L38.3626 61.8209C38.383 61.865 38.4048 61.9125 38.4306 61.9638C38.2606 62.1331 38.2606 62.1331 38.2606 62.3024C37.8356 63.7411 37.3681 65.1797 36.9006 66.6184L36.9 66.6201C36.4325 68.0587 35.9648 69.4981 35.5398 70.9367C35.3698 70.9367 35.3698 71.106 35.3698 71.2753C35.5398 71.4446 35.5398 71.4447 35.7099 71.4447C36.05 71.5293 36.3475 71.614 36.6451 71.6986C36.9427 71.7832 37.2403 71.8679 37.5804 71.9525C37.6654 71.9525 37.7929 71.9949 37.9205 72.0372C38.048 72.0795 38.1755 72.1219 38.2606 72.1219C39.2808 72.2912 39.961 71.7832 40.3011 70.7674C40.3861 70.4289 40.4711 70.1327 40.5561 69.8366C40.6411 69.5403 40.7263 69.2437 40.8113 68.9052C40.9813 68.3973 40.9813 67.8893 40.6412 67.3814C41.1514 67.2121 41.3214 66.7042 41.4915 66.1963C41.5765 65.8577 41.6615 65.5615 41.7465 65.2652C41.8315 64.9689 41.9166 64.6726 42.0016 64.334C42.0761 64.1114 42.118 63.9212 42.1559 63.7494C42.2043 63.5292 42.2462 63.3391 42.3417 63.1489C42.5117 62.641 42.5117 62.1331 42.0016 61.7945C41.4914 61.2866 40.9813 61.1173 40.3011 61.2866C40.2161 61.2866 40.1311 61.3289 40.0461 61.3713C39.961 61.4136 39.876 61.4559 39.791 61.4559C39.6209 60.7787 39.1108 60.6094 38.6007 60.6094ZM38.7706 66.1963C38.6006 66.154 38.4306 66.1117 38.2606 66.027C38.4306 66.027 38.4306 65.8577 38.2606 65.6884L39.2809 62.641C39.2809 62.4717 39.4509 62.3024 39.6209 62.3024C39.7414 62.3024 39.8406 62.2812 39.9335 62.2613C40.1028 62.225 40.2516 62.1931 40.4712 62.3024C40.8113 62.4717 40.8113 62.641 40.8113 62.9796V63.1489C40.6412 63.5722 40.5137 64.0378 40.3862 64.5033C40.2586 64.9689 40.1311 65.4345 39.961 65.8577C39.961 65.9424 39.9185 65.9847 39.876 66.027C39.8335 66.0694 39.791 66.1117 39.791 66.1963C39.6209 66.3656 39.4509 66.3656 39.2809 66.3656C39.1108 66.281 38.9407 66.2386 38.7706 66.1963ZM37.3332 70.7517C37.1984 70.7141 37.0493 70.6724 36.9002 70.5982C37.2403 69.4131 37.5804 68.3972 37.9205 67.3814C38.2606 67.3814 38.6007 67.5507 38.9408 67.72C39.2809 67.72 39.4509 68.0586 39.2809 68.3972C39.183 68.8844 39.0288 69.3156 38.8831 69.7229C38.7757 70.0232 38.6728 70.3108 38.6007 70.5982C38.6007 70.7675 38.4306 70.9367 38.0905 70.9367H37.7504C37.6549 70.8417 37.5058 70.8 37.3332 70.7517Z" fill="#313030"/>
<path d="M31.2886 68.3973C31.2772 68.4425 31.2644 68.4861 31.2501 68.5282C31.1197 68.3973 31.1325 68.3973 31.2886 68.3973Z" fill="#313030"/>
<path fill-rule="evenodd" clip-rule="evenodd" d="M31.2447 68.5438C31.0411 69.1224 30.5574 69.4004 29.9282 69.2438C29.9282 69.2438 29.7581 69.2438 29.7581 69.0745C29.248 68.7359 29.078 68.3973 29.248 67.8894C29.333 67.4662 29.4606 67.0429 29.5881 66.6197C29.7156 66.1964 29.8432 65.7732 29.9282 65.3499C29.9282 65.1806 29.9282 65.1806 30.0982 65.0113C29.9931 64.9067 29.8881 64.8667 29.7428 64.8115C29.6531 64.7773 29.548 64.7374 29.4181 64.6727C29.163 65.2652 28.908 65.8153 28.653 66.3654C28.3979 66.9157 28.1427 67.4662 27.8876 68.0587C27.7743 68.0023 27.661 67.9647 27.5477 67.9271C27.321 67.8518 27.0941 67.7766 26.8674 67.5508C26.6973 67.5508 26.6973 67.3815 26.6973 67.2122C26.6973 67.1276 26.7398 67.0852 26.7823 67.0429C26.8248 67.0006 26.8674 66.9583 26.8674 66.8736C27.417 65.7791 27.939 64.6845 28.4556 63.6012C29.2174 62.0034 29.9678 60.4299 30.7784 58.9165V58.7472C30.9485 58.2393 30.9485 58.07 30.6084 57.7314C30.7784 57.3928 31.1185 57.0542 31.4586 57.2235C32.1388 57.3928 32.4789 57.5621 32.4789 58.2393H32.989C33.4992 58.2393 34.0093 58.4086 34.5195 58.7472C35.0296 59.0858 35.1996 59.5937 35.0296 60.2709C35.0296 60.3556 34.9871 60.4402 34.9446 60.5249C34.9021 60.6095 34.8595 60.6942 34.8595 60.7788C34.6045 61.3713 34.3069 61.9639 34.0093 62.5564C33.7117 63.149 33.4142 63.7416 33.1591 64.3341C32.989 64.6727 32.819 65.0113 32.4789 65.1806C32.3834 65.2757 32.2343 65.3174 32.0617 65.3656C31.9269 65.4033 31.7778 65.445 31.6287 65.5192C31.6287 65.6885 31.6287 65.6885 31.4587 65.8577C31.3737 66.1117 31.2886 66.408 31.2035 66.7043C31.1185 67.0005 31.0335 67.2969 30.9485 67.5508V67.8894C30.9485 68.2128 30.9485 68.3817 31.2447 68.5438ZM29.9282 63.6569C30.0132 63.7416 30.1408 63.7839 30.2683 63.8262C30.3958 63.8685 30.5234 63.9109 30.6084 63.9955C31.1185 64.1648 31.4586 64.1648 31.7987 63.6569C32.0538 63.149 32.3088 62.5988 32.5639 62.0486C32.819 61.4984 33.0741 60.9481 33.3291 60.4402C33.3291 60.4402 33.3291 60.2709 33.4992 60.2709C33.6692 59.9323 33.4992 59.763 33.3291 59.5937C32.9891 59.4244 32.819 59.4244 32.479 59.4244C32.3089 59.4244 32.1388 59.5937 31.9688 59.763C31.6287 60.3556 31.3311 60.9905 31.0335 61.6253L31.0331 61.6261C30.7357 62.2607 30.4382 62.8954 30.0982 63.4876L29.9282 63.6569Z" fill="#313030"/>
<path d="M31.2447 68.5438C31.2587 68.5514 31.2733 68.559 31.2886 68.5666L31.2501 68.5282L31.2447 68.5438Z" fill="#313030"/>
<path fill-rule="evenodd" clip-rule="evenodd" d="M48.2933 74.4922C48.8034 74.4922 49.1435 74.1536 49.1435 73.6457C48.6334 73.4764 48.6333 73.307 48.6333 72.6299V72.122C48.9734 70.5983 49.3135 68.9053 49.4836 67.3816C49.6536 66.5351 49.8237 65.5193 49.9937 64.5035C49.9937 63.657 49.6536 63.1491 48.9734 62.8105C48.4634 62.6412 47.9531 62.4718 47.443 62.4718C46.4228 62.4718 45.7426 62.9797 45.5725 63.9955C45.4025 65.1807 45.2324 66.1964 45.0624 67.2122C44.8923 67.9741 44.7648 68.7783 44.6373 69.5824C44.5098 70.3866 44.3822 71.1908 44.2122 71.9527C44.2122 72.122 44.1697 72.3336 44.1271 72.5452C44.0846 72.7568 44.0421 72.9685 44.0421 73.1378C44.0421 73.4763 44.0421 73.6457 44.3822 73.6457H45.4025C45.4875 72.9685 45.615 72.2489 45.7425 71.5294C45.8701 70.8099 45.9976 70.0903 46.0826 69.4131C46.3377 69.4978 46.5928 69.5401 46.8479 69.5825C47.1029 69.6248 47.358 69.6671 47.6131 69.7518C47.5281 70.175 47.4856 70.5559 47.443 70.9369C47.4005 71.3178 47.358 71.6987 47.273 72.122C47.273 72.3759 47.2305 72.5875 47.188 72.7992C47.1454 73.0108 47.1029 73.2224 47.1029 73.4763C47.1029 74.1535 47.443 74.4922 47.9532 74.4922H48.2933ZM47.9532 68.3973V68.736C47.6683 68.665 47.4132 68.6238 47.188 68.5874C46.8755 68.5369 46.6204 68.4957 46.4227 68.3973C46.4227 68.1434 46.4653 67.8895 46.5078 67.6355C46.5503 67.3816 46.5928 67.1276 46.5928 66.8736C46.5928 66.0271 46.7628 65.1806 46.9329 64.3341C46.9329 63.8262 47.1029 63.657 47.443 63.657C47.9532 63.657 48.2933 63.657 48.4633 63.9955C48.6333 64.1648 48.6333 64.3341 48.6333 64.5033C48.2932 65.8577 48.1232 67.0429 47.9532 68.3973Z" fill="#313030"/>
<path d="M23.1263 64.6727C22.7862 65.0113 22.6161 65.1806 22.106 65.1806C21.5958 65.0113 21.2557 64.6727 21.2557 64.1648C20.4055 64.3341 19.7253 63.8262 19.2152 63.3183C18.8751 62.9797 18.8751 62.4718 19.0451 62.1332C19.1302 62.0486 19.1727 61.9216 19.2152 61.7946C19.2577 61.6677 19.3002 61.5407 19.3852 61.456C20.9157 59.2551 22.4461 57.0542 23.8064 54.8533C23.8064 54.7687 23.849 54.7263 23.8915 54.684C23.934 54.6417 23.9765 54.5994 23.9765 54.5147C24.1465 54.1761 24.1465 54.0068 23.8064 53.8375L23.6364 53.6682C23.8065 53.3296 24.1465 53.1603 24.6567 53.1603C24.8267 53.1603 25.1668 53.3296 25.3369 53.4989C25.677 53.6682 25.677 54.0068 25.5069 54.3454C25.4018 54.4501 25.3617 54.5547 25.3062 54.6993C25.2719 54.7887 25.2318 54.8933 25.1668 55.0226C24.4016 56.1231 23.6364 57.2658 22.8712 58.4086C22.1061 59.5512 21.3407 60.6943 20.5756 61.7946C20.5756 61.8793 20.5331 61.9216 20.4905 61.9639C20.448 62.0063 20.4055 62.0486 20.4055 62.1332C20.2355 62.4718 20.2355 62.6411 20.5756 62.8104C20.9157 63.149 21.2557 63.149 21.5958 62.9797C21.7659 62.9797 21.7659 62.8104 21.7659 62.8104C23.2963 60.4402 24.8267 58.2393 26.5272 55.8691C26.6972 55.5306 26.8673 55.1919 27.2074 54.8533C27.5475 55.0226 27.8876 55.1919 28.2277 55.5305C28.3127 55.6152 28.3552 55.6575 28.3552 55.6998C28.3552 55.7422 28.3127 55.7845 28.2277 55.8691C28.2277 55.8691 28.0576 56.0384 28.0576 56.2077L28.0571 56.2085L28.0566 56.2092C26.3565 58.7482 24.6563 61.2872 22.9562 63.657C22.9562 63.7416 22.9137 63.7839 22.8712 63.8262C22.8287 63.8686 22.7862 63.9109 22.7862 63.9955C22.6161 64.1648 22.7862 64.3341 23.1263 64.6727Z" fill="#313030"/>
<path fill-rule="evenodd" clip-rule="evenodd" d="M92.4205 63.6568C92.463 63.6992 92.5055 63.7415 92.5055 63.8261C93.1857 63.3182 93.6958 62.9796 94.546 62.641L95.0562 62.1331C95.7364 61.2866 95.7364 60.6094 95.2263 59.7629C93.8659 57.5621 92.3355 55.5306 90.8052 53.499L90.2949 52.9909C89.9548 52.6523 89.4447 52.6523 88.9345 52.8216C88.2543 52.9909 87.7442 53.3295 87.5742 54.0067C87.4041 54.176 87.4041 54.176 87.4041 54.3453C87.064 54.176 86.894 54.176 86.5539 54.3453C86.3838 54.3453 86.2137 54.5146 86.0437 54.6839C85.7036 55.0225 85.7036 55.3611 86.0437 55.6997H86.2138C86.5538 55.5304 86.7239 55.5304 86.8939 55.869C86.8939 55.9537 86.9364 55.996 86.979 56.0383C87.0215 56.0807 87.064 56.123 87.064 56.2076C87.9137 57.3921 88.806 58.6188 89.6982 59.8455L89.7012 59.8497C90.5935 61.0764 91.4857 62.3031 92.3354 63.4875C92.3354 63.5722 92.378 63.6145 92.4205 63.6568ZM93.1857 61.8792C93.0581 61.9638 92.9306 62.0485 92.8456 62.1331C92.8456 62.0486 92.8456 62.0061 92.8243 61.985C92.8031 61.9638 92.7606 61.9638 92.6756 61.9638C91.9104 60.8634 91.1452 59.8053 90.3799 58.7472C89.6147 57.689 88.8495 56.6309 88.0843 55.5304C88.0843 55.4011 88.0595 55.2965 88.0383 55.2071C88.004 55.0625 87.9792 54.9579 88.0843 54.8532C88.0843 54.5146 88.2543 54.3453 88.5944 54.176C88.9345 54.176 89.1046 54.176 89.2746 54.3453L89.4446 54.5146C89.7318 54.9077 90.0265 55.3084 90.3257 55.715L90.3264 55.716C91.4441 57.2353 92.6228 58.8377 93.6958 60.4401C94.0359 60.948 94.0359 61.2866 93.5258 61.6252C93.4408 61.7099 93.3132 61.7945 93.1857 61.8792Z" fill="#313030"/>
<path fill-rule="evenodd" clip-rule="evenodd" d="M85.0234 68.0587C84.5132 68.0587 84.0031 67.8893 83.833 67.3814C83.748 67.2968 83.7055 67.2121 83.663 67.1275C83.6205 67.0428 83.5779 66.9582 83.4929 66.8735C82.8978 65.7731 82.3026 64.6304 81.7075 63.4876C81.1123 62.3448 80.5172 61.202 79.922 60.1015C79.922 60.1015 79.922 59.9322 79.7519 59.9322C79.4118 59.255 79.4118 58.4085 80.092 57.9006C80.6021 57.3927 81.2823 57.0541 81.9625 56.8848C82.6427 56.8848 82.9828 57.0541 83.3229 57.562C83.493 57.7313 83.4929 57.9006 83.4929 57.9006C84.0881 59.0011 84.6833 60.1438 85.2784 61.2866C85.8736 62.4294 86.4687 63.5722 87.0639 64.6726C87.5741 65.6884 87.234 66.535 86.5538 67.0429C86.3838 67.72 85.5335 68.0587 85.0234 68.0587ZM85.3634 66.7042C86.0436 66.7042 86.3837 66.027 86.0436 65.5191C85.3634 64.334 84.6833 62.9796 84.1731 61.7945L82.6427 58.7471C82.4726 58.4085 82.1326 58.2392 81.7925 58.4085C81.6224 58.4085 81.4524 58.5778 81.2824 58.7471C81.1124 58.9164 81.1123 59.255 81.1123 59.4243C81.1123 59.4243 81.1123 59.5936 81.2823 59.5936C82.4726 61.7944 83.663 63.9955 84.8533 66.3656C84.8533 66.4503 84.8958 66.4926 84.9384 66.5349C84.9809 66.5773 85.0234 66.6196 85.0234 66.7042C84.8533 66.7042 85.0233 66.8735 85.3634 66.7042Z" fill="#313030"/>
<path fill-rule="evenodd" clip-rule="evenodd" d="M75.5008 70.4289C75.6709 71.1061 76.181 71.4447 77.2013 71.4447C77.7114 71.4447 78.3916 71.2754 79.0718 70.9368C79.582 70.5982 79.752 70.0903 79.752 69.4131C79.752 69.3285 79.7095 69.2438 79.667 69.1592C79.6245 69.0745 79.5819 68.9899 79.5819 68.9052C79.1568 67.7201 78.7317 66.4927 78.3066 65.2653C77.8815 64.0378 77.4564 62.8104 77.0312 61.6253C77.0312 61.5406 76.9887 61.456 76.9462 61.3713C76.9037 61.2867 76.8612 61.202 76.8612 61.1174C76.5211 60.6095 76.181 60.2709 75.6709 60.2709C74.6506 60.1016 73.8004 60.4402 73.1202 61.1174C72.7801 61.456 72.61 61.7946 72.61 62.1332C72.61 62.4718 72.61 62.6411 72.7801 62.9797C73.4603 64.6727 74.1405 66.535 74.8207 68.3973C74.9907 69.0744 75.1608 69.7518 75.5008 70.4289ZM74.1404 61.6253C74.4805 61.456 74.6506 61.456 74.8207 61.456C75.1608 61.456 75.3308 61.456 75.3308 61.7946C75.5008 62.3025 75.7134 62.8527 75.9259 63.4029C76.1385 63.9532 76.3511 64.5034 76.5211 65.0113C76.7761 65.6883 76.9887 66.3231 77.2012 66.9579C77.4137 67.5927 77.6264 68.228 77.8815 68.9052V69.0745C78.2216 69.7517 77.8815 70.2596 77.2013 70.2596C76.8612 70.2596 76.6912 70.0903 76.5211 69.7517C76.4361 69.4131 76.3086 69.1168 76.181 68.8206C76.0535 68.5243 75.9259 68.228 75.8409 67.8894C75.1612 66.1975 74.4814 64.3365 73.8017 62.4754L73.8004 62.4718V62.3025C73.8004 62.1332 73.8003 61.7946 74.1404 61.6253Z" fill="#313030"/>
<path d="M41.3786 5.13414C42.1001 8.31725 42.8405 11.5836 43.7021 14.7291C43.6171 14.7291 43.5321 14.7715 43.4471 14.8138C43.3621 14.8561 43.277 14.8984 43.192 14.8984C43.1216 14.8984 43.0511 14.9275 42.9686 14.9615C42.8519 15.0096 42.7111 15.0677 42.5118 15.0677C42.1717 15.0677 42.0017 15.0677 42.0017 14.7291C41.9166 14.2212 41.7891 13.671 41.6616 13.1208C41.534 12.5706 41.4065 12.0203 41.3215 11.5124C41.0927 10.3737 40.8298 9.23495 40.5633 8.08094C40.2356 6.66158 39.9024 5.21856 39.621 3.72461V3.55533C39.451 3.61176 39.2809 3.64938 39.1109 3.687C38.7708 3.76224 38.4307 3.83748 38.0906 4.06321L37.5805 3.04742C37.5805 2.87812 37.5805 2.70883 37.9206 2.70883C38.1756 2.62418 38.3882 2.58185 38.6007 2.53952C38.8133 2.49719 39.0259 2.45486 39.2809 2.37021C39.7061 2.28556 40.0887 2.20091 40.4713 2.11627C40.8539 2.03162 41.2365 1.94698 41.6616 1.86233C42.0016 1.86233 42.3416 1.69309 42.6816 1.52383C42.8516 1.8624 43.022 2.20094 43.022 2.53952C43.022 2.70882 43.0219 2.87811 42.6818 2.87811C42.4909 2.97318 42.2999 3.01486 42.0788 3.06312C41.9062 3.10079 41.7152 3.14248 41.4916 3.21671C41.3215 3.21671 41.1514 3.21672 40.9814 3.38602C41.1135 3.96493 41.2458 4.54831 41.3786 5.13414Z" fill="#313030"/>
<path d="M66.1484 62.6411C65.6382 62.8104 65.2982 63.149 65.4682 63.8262C65.6211 63.8262 65.7396 63.8604 65.8701 63.898C66.0299 63.9442 66.2076 63.9955 66.4884 63.9955V64.1648C66.5735 64.7573 66.701 65.3499 66.8286 65.9424C66.9561 66.535 67.0836 67.1275 67.1687 67.7201C67.3387 68.5665 67.5087 69.3706 67.6787 70.1747C67.8488 70.979 68.0189 71.7832 68.1889 72.6298C68.1889 72.9684 68.1889 73.1377 68.359 73.307C68.529 73.4762 68.6991 73.6456 69.0391 73.6456C69.2092 73.6456 69.5493 73.6456 69.7194 73.4763C70.0595 73.307 70.2295 72.9684 70.0594 72.4605H69.8894C69.7268 72.4605 69.6419 72.4605 69.579 72.4235C69.5104 72.3831 69.468 72.2986 69.3793 72.1219V71.9526C69.3793 71.4447 69.2092 70.7676 69.0392 70.0905C68.9542 69.8366 68.9116 69.6247 68.8691 69.4131C68.8266 69.2015 68.7841 68.9898 68.6991 68.7359H68.8691C69.1242 68.6512 69.3368 68.6089 69.5493 68.5666C69.7619 68.5243 69.9744 68.4819 70.2295 68.3973C70.3995 68.3973 70.3996 68.228 70.3996 68.0587C70.3996 67.8894 70.2295 67.5508 70.0595 67.2122C69.6961 67.4534 69.3328 67.5227 68.908 67.6039C68.7364 67.6367 68.5547 67.6714 68.359 67.7201C68.1889 67.0429 68.0614 66.3657 67.9339 65.6885C67.8063 65.0113 67.6788 64.3341 67.5087 63.6569C67.6788 63.4876 67.8489 63.4876 68.0189 63.4876C68.359 63.4876 68.8691 63.4876 69.2092 63.3183C69.5492 63.149 69.5493 63.1489 69.5493 62.9797C69.5493 62.6411 69.3793 62.3026 69.2093 61.9641C68.9543 62.0487 68.7417 62.0908 68.5291 62.1332C68.3166 62.1755 68.1039 62.2178 67.8488 62.3025C67.5938 62.3871 67.2963 62.4294 66.9988 62.4717C66.7012 62.5141 66.4035 62.5564 66.1484 62.6411Z" fill="#313030"/>
<path d="M32.4789 18.2844C32.3089 18.3691 32.0963 18.4961 31.8838 18.623C31.6712 18.75 31.4586 18.877 31.2886 18.9616C31.1186 18.9616 30.9485 18.9616 30.9485 18.7923C30.9485 18.7923 30.9485 18.623 30.7785 18.623C29.4181 15.4063 28.0577 12.1896 26.5273 8.97293C26.4175 8.64495 26.2368 8.31697 26.0309 7.94341C25.918 7.73848 25.7975 7.51982 25.6771 7.27992C25.6771 7.19527 25.6345 7.15295 25.592 7.11063C25.5495 7.0683 25.507 7.02598 25.507 6.94133C25.677 6.85668 25.8896 6.7297 26.1022 6.60272C26.3147 6.47574 26.5273 6.34876 26.6973 6.26411C26.8674 6.26411 27.0374 6.26412 27.0374 6.43342C27.0374 6.51807 27.0799 6.5604 27.1225 6.60272C27.165 6.64504 27.2075 6.68737 27.2075 6.77202C28.5678 9.98872 29.9282 13.2054 31.4586 16.4221C31.5437 16.6761 31.6712 16.93 31.7987 17.184C31.9263 17.4379 32.0538 17.6919 32.1388 17.9458C32.4789 17.9458 32.4789 18.1151 32.4789 18.2844Z" fill="#313030"/>
<path d="M67.8487 23.8713H74.8206V26.0722H67.8487V23.8713Z" fill="#313030"/>
</svg>
